<svg width="100" height="100" viewBox="0 0 100 100" fill="none" xmlns="http://www.w3.org/2000/svg">
<path d="M81.2808 24.1475H18.7205C16.0738 24.1475 13.9082 26.313 13.9082 28.9598V71.188C13.9082 73.8347 16.0738 76.0003 18.7205 76.0003H81.2808C83.9276 76.0003 86.0931 73.8347 86.0931 71.188V28.9598C86.0931 26.313 83.9276 24.1475 81.2808 24.1475ZM18.7205 26.0724H81.2808C82.8448 26.0724 84.1682 27.3958 84.1682 28.9598V31.2456H15.8331V28.9598C15.8331 27.2755 17.1565 26.0724 18.7205 26.0724ZM81.2808 74.0754H18.7205C17.1565 74.0754 15.8331 72.752 15.8331 71.188V33.1706H84.0479V71.188C84.1682 72.752 82.8448 74.0754 81.2808 74.0754Z" fill="#5B0E27"/>
<path d="M72.139 27.2759H69.4922V29.9227H72.139V27.2759Z" fill="#5B0E27"/>
<path d="M76.4671 27.2759H73.8203V29.9227H76.4671V27.2759Z" fill="#5B0E27"/>
<path d="M80.7991 27.2759H78.1523V29.9227H80.7991V27.2759Z" fill="#5B0E27"/>
<path d="M27.3841 43.8777L25.6998 40.6294L24.1358 43.8777L20.4062 44.4793L23.053 47.0057L22.4515 50.7353L25.6998 49.051L29.0684 50.7353L28.4669 47.0057L31.1137 44.4793L27.3841 43.8777Z" fill="#5B0E27"/>
<path d="M40.497 47.0057L43.2641 44.4793L39.5345 43.8777L37.8502 40.6294L36.2862 43.8777L32.5566 44.4793L35.2034 47.0057L34.6019 50.7353L37.8502 49.051L41.2188 50.7353L40.497 47.0057Z" fill="#5B0E27"/>
<path d="M46.7523 50.7353L50.0006 49.051L53.3692 50.7353L52.6474 47.0057L55.4145 44.4793L51.6849 43.8777L50.0006 40.6294L48.3163 43.8777L44.707 44.4793L47.3538 47.0057L46.7523 50.7353Z" fill="#5B0E27"/>
<path d="M63.8353 43.8777L62.151 40.6294L60.4667 43.8777L56.8574 44.4793L59.5042 47.0057L58.9027 50.7353L62.151 49.051L65.3993 50.7353L64.7978 47.0057L67.4445 44.4793L63.8353 43.8777Z" fill="#5B0E27"/>
<path d="M75.9876 43.8777L74.3033 40.6294L72.619 43.8777L69.0098 44.4793L71.6565 47.0057L70.9347 50.7353L74.3033 49.051L77.5516 50.7353L76.9501 47.0057L79.5969 44.4793L75.9876 43.8777Z" fill="#5B0E27"/>
<path d="M58.2998 56.6304H41.6973V58.5553H58.2998V56.6304Z" fill="#5B0E27"/>
<path d="M58.2998 65.0522H41.6973V66.9772H58.2998V65.0522Z" fill="#5B0E27"/>
<path d="M61.6699 60.7212H38.3301V62.6461H61.6699V60.7212Z" fill="#5B0E27"/>
</svg>
