<svg width="165" height="165" viewBox="0 0 165 165" fill="none" xmlns="http://www.w3.org/2000/svg">
<g clip-path="url(#clip0_61_12)">
<path d="M143.533 55.0291L143.526 54.9442C143.416 53.7293 142.398 52.7987 141.178 52.7987H139.675C138.446 52.7987 137.432 51.8507 137.249 50.6348C135.985 42.2595 131.336 34.9795 124.745 30.2363C123.782 29.5433 123.415 28.2771 123.738 27.1355C124.077 25.9373 124.251 24.6891 124.251 23.4158C124.251 15.8938 118.131 9.77399 110.608 9.77399C109.489 9.77399 108.4 9.91078 107.358 10.1672C106.396 10.4039 105.359 10.1518 104.673 9.43625C98.8908 3.4004 90.9893 0 82.4988 0C68.2122 0 55.9143 9.87543 52.5926 23.4683C52.364 24.4036 51.6324 25.14 50.6986 25.3746C38.7868 28.3684 29.6073 38.3171 27.7485 50.6342C27.565 51.8502 26.5517 52.7987 25.322 52.7987H23.8199C22.6 52.7987 21.5816 53.7295 21.4723 54.9445L21.4646 55.0291C21.2159 57.7861 21.0898 60.4934 21.0898 63.0764C21.0898 81.5674 27.2055 99.0499 38.3104 112.304C47.6679 123.473 59.6285 130.613 72.6949 132.995C73.8483 133.205 74.7113 134.193 74.7113 135.366V147.939C74.7113 149.241 73.656 150.296 72.3542 150.296H57.338C56.0362 150.296 54.9809 151.351 54.9809 152.653V152.84C54.9809 154.142 56.0362 155.197 57.3381 155.197H74.7113H90.2861H107.66C108.962 155.197 110.017 154.142 110.017 152.84V152.653C110.017 151.351 108.962 150.296 107.66 150.296H92.6432C91.3414 150.296 90.2861 149.241 90.2861 147.939V135.366C90.2861 134.194 91.1491 133.205 92.3025 132.995C105.37 130.614 117.33 123.473 126.688 112.304C137.792 99.0499 143.908 81.567 143.908 63.0764C143.908 60.4931 143.782 57.7854 143.533 55.0291ZM101.887 22.8789C101.89 22.8357 101.893 22.7929 101.896 22.7503C101.908 22.6024 101.922 22.4548 101.941 22.3082C101.945 22.2782 101.949 22.2479 101.953 22.2186C102.163 20.7085 102.766 19.2886 103.682 18.0949C103.695 18.0778 103.708 18.0617 103.721 18.0453C103.816 17.9225 103.916 17.8029 104.018 17.685C104.041 17.6592 104.063 17.6331 104.085 17.6076C104.201 17.4781 104.319 17.3511 104.443 17.2283C104.462 17.2087 104.483 17.1906 104.502 17.1716C104.603 17.0727 104.707 16.976 104.813 16.8816C104.859 16.8413 104.905 16.802 104.951 16.7626C105.043 16.6847 105.136 16.6083 105.231 16.5342C105.273 16.501 105.315 16.4671 105.357 16.4346C105.489 16.3356 105.623 16.2399 105.761 16.1481C105.802 16.1207 105.845 16.0946 105.886 16.0678C105.996 15.9973 106.107 15.9286 106.22 15.8629C107.511 15.1097 109.01 14.676 110.609 14.676C115.429 14.6757 119.35 18.5967 119.35 23.4165C119.35 23.8039 119.325 24.1877 119.276 24.5663C119.107 25.8534 117.695 26.4089 116.463 26C115.356 25.6326 114.232 25.3303 113.092 25.0929C113.073 25.089 113.059 25.0721 113.059 25.0526C113.059 25.0319 113.044 25.0145 113.023 25.0117L111.528 24.8096C110.324 24.624 109.105 24.5109 107.871 24.469C107.871 24.469 107.87 24.469 107.87 24.469C107.86 24.4687 107.849 24.4683 107.839 24.4677C107.839 24.4677 107.839 24.4676 107.839 24.4674C107.839 24.4672 107.838 24.467 107.838 24.467C107.824 24.4664 107.81 24.4667 107.795 24.4664C107.738 24.4645 107.68 24.4613 107.622 24.46C107.609 24.4596 107.597 24.4587 107.584 24.4587C107.321 24.4519 107.058 24.4487 106.793 24.4487C106.465 24.4487 106.139 24.4548 105.813 24.4645C105.76 24.4661 105.706 24.4693 105.652 24.4712C105.577 24.4738 105.501 24.478 105.425 24.4812C105.395 24.4825 105.364 24.4841 105.333 24.4854C105.275 24.488 105.217 24.4919 105.16 24.4944C104.929 24.506 104.7 24.5199 104.471 24.537C104.398 24.5425 104.327 24.5486 104.255 24.5547C103.904 24.5827 103.554 24.6166 103.206 24.6569C103.189 24.6588 103.172 24.6604 103.155 24.6627C102.776 24.7065 102.399 24.7564 102.023 24.814C102.001 24.8174 101.979 24.8022 101.976 24.7796C101.944 24.5786 101.92 24.3765 101.902 24.1725C101.899 24.1329 101.897 24.0935 101.894 24.0536C101.879 23.8425 101.869 23.6304 101.869 23.4171C101.869 23.2363 101.876 23.0571 101.887 22.8789ZM101.848 29.8231C102.023 29.7896 102.198 29.7561 102.374 29.7258C102.48 29.7071 102.587 29.6913 102.693 29.6746C102.694 29.6746 102.694 29.6746 102.694 29.6747C102.694 29.6748 102.694 29.6749 102.694 29.6748C102.854 29.6487 103.015 29.6246 103.176 29.6014C103.299 29.5843 103.421 29.5688 103.544 29.5537C103.691 29.5353 103.839 29.5179 103.987 29.5025C103.987 29.5025 103.987 29.5024 103.987 29.5023C103.987 29.5022 103.987 29.5021 103.987 29.5021C104.109 29.4889 104.232 29.4767 104.354 29.4651C104.5 29.4512 104.646 29.4396 104.793 29.4283C104.914 29.4193 105.035 29.4093 105.156 29.4019C105.159 29.4019 105.162 29.4019 105.165 29.4016C105.339 29.3906 105.514 29.3829 105.689 29.3755C105.785 29.3713 105.881 29.3665 105.978 29.3629C106.249 29.3552 106.52 29.3494 106.793 29.3494C107.133 29.3494 107.472 29.3603 107.81 29.3735C108.186 29.3893 108.567 29.4116 108.952 29.4444C108.962 29.4451 108.974 29.4457 108.985 29.4467C109.414 29.4841 109.848 29.5321 110.281 29.5901L110.68 29.6439C112.638 29.9398 114.526 30.4528 116.316 31.1624C116.32 31.1644 116.324 31.1657 116.328 31.1673C116.672 31.3042 117.012 31.4493 117.349 31.6001C117.405 31.6255 117.462 31.6516 117.518 31.6774C117.83 31.8202 118.139 31.9671 118.444 32.1215C118.462 32.1302 118.48 32.1392 118.498 32.1479C125.482 35.7002 130.65 42.3278 132.206 50.2357C132.475 51.5987 131.378 52.7977 129.989 52.7977H88.9524C88.9277 52.7977 88.9067 52.7789 88.9045 52.7542C88.7988 51.4352 88.6084 50.14 88.3406 48.8729C88.3396 48.8671 88.3383 48.8619 88.337 48.8561C88.2848 48.6093 88.2294 48.3637 88.1714 48.1194C88.1643 48.0894 88.1565 48.0598 88.1495 48.0298C88.0972 47.8129 88.0431 47.597 87.9864 47.3824C87.97 47.3208 87.9532 47.2606 87.9371 47.1993C87.8881 47.0189 87.8382 46.8394 87.7863 46.6599C87.7586 46.5638 87.7295 46.4684 87.7002 46.3727C87.6583 46.2335 87.6161 46.0949 87.5726 45.9567C87.5297 45.822 87.4856 45.6882 87.4414 45.5542C87.4102 45.4601 87.3789 45.366 87.3467 45.2722C87.2868 45.0975 87.2255 44.9232 87.1624 44.7495C87.1453 44.7021 87.1285 44.6554 87.1111 44.6083C86.7833 43.7174 86.415 42.8408 86.0059 41.9821C85.6284 41.1897 85.664 40.2473 86.1969 39.5499C89.9118 34.6888 95.2674 31.2474 101.26 29.9427C101.333 29.9266 101.405 29.9095 101.479 29.8943L101.589 29.8714C101.675 29.855 101.762 29.8395 101.848 29.8231ZM82.4988 4.90102C89.7892 4.90102 96.5655 7.88332 101.455 13.1645C101.494 13.2072 101.493 13.2755 101.45 13.3147C101.426 13.3363 101.403 13.3592 101.38 13.3808C101.013 13.7185 100.667 14.0756 100.341 14.4491C100.247 14.5564 100.153 14.6628 100.063 14.773C100.023 14.8207 99.9866 14.8703 99.9476 14.9186C99.8377 15.0566 99.7294 15.1951 99.6247 15.3369C99.6002 15.3701 99.5773 15.4043 99.5528 15.4381C99.4362 15.5989 99.3227 15.7623 99.2135 15.9286C99.2003 15.9486 99.188 15.9686 99.1748 15.9886C99.0556 16.1716 98.9405 16.3579 98.8297 16.5467C98.8261 16.5529 98.8226 16.5593 98.8194 16.5654C97.8806 18.1745 97.2609 19.9901 97.0495 21.9282C97.0482 21.9402 97.0462 21.9524 97.045 21.9643C97.0227 22.1751 97.006 22.3875 96.9934 22.6005C96.9915 22.6311 96.9879 22.662 96.9863 22.6923C96.9737 22.9318 96.9666 23.1732 96.9666 23.4161C96.9666 23.6356 96.9721 23.8547 96.9824 24.0729C96.9863 24.1493 96.9937 24.2254 96.9989 24.3021C97.0076 24.4432 97.0163 24.5844 97.0295 24.7252C97.0379 24.8145 97.0504 24.9031 97.0607 24.9917C97.0756 25.1187 97.0888 25.2456 97.1071 25.3723C97.1204 25.4619 97.1368 25.5512 97.1519 25.6401C97.1819 25.8203 97.0735 25.9973 96.9004 26.0555C92.1848 27.64 87.9297 30.3536 84.4773 34.0028C83.4194 35.121 81.5823 35.1209 80.5244 34.0026C75.4922 28.6835 68.7519 25.3531 61.3695 24.6092C61.3531 24.6076 61.3366 24.6056 61.3205 24.604C61.0953 24.5818 60.8697 24.5612 60.6431 24.5434C60.5616 24.537 60.4794 24.5318 60.3976 24.526C60.2193 24.5135 60.0414 24.5012 59.8623 24.4922C59.7182 24.4848 59.5732 24.4793 59.4285 24.4735C59.3015 24.4687 59.1745 24.4625 59.0476 24.459C58.7675 24.4516 58.4865 24.4471 58.2045 24.4471C57.7949 24.4471 57.4886 24.0637 57.6012 23.6699C60.7244 12.7401 70.8243 4.90102 82.4988 4.90102ZM54.3148 29.6439L54.7163 29.5898C55.2307 29.5205 55.7424 29.4689 56.2497 29.4293C56.3808 29.4196 56.512 29.4087 56.6441 29.4009C56.8175 29.3903 56.9906 29.381 57.1623 29.3739C57.5088 29.36 57.8549 29.3491 58.2042 29.3491C58.5851 29.3491 58.9635 29.3597 59.3408 29.3761C59.4198 29.3797 59.4991 29.3832 59.5784 29.3877C70.3137 29.952 79.3374 37.0812 82.6983 46.8275C82.7167 46.8797 82.7328 46.9325 82.7509 46.985C82.8479 47.2728 82.9391 47.5635 83.0267 47.8555C83.0541 47.9486 83.0825 48.0411 83.1089 48.1349C83.204 48.4665 83.2936 48.8 83.3751 49.1368C83.3925 49.2077 83.407 49.2792 83.4234 49.3505C83.4888 49.6299 83.5494 49.9115 83.6062 50.1945C83.6326 50.3285 83.6574 50.4629 83.6816 50.5973C83.7254 50.8358 83.765 51.0759 83.8018 51.3166C83.8201 51.4355 83.8401 51.5541 83.8566 51.6737C83.9036 52.013 83.9442 52.3549 83.9777 52.6985C83.9829 52.7523 83.9396 52.7987 83.8855 52.7987H35.0084C33.6191 52.7987 32.5221 51.5988 32.7906 50.2358C34.8862 39.5963 43.5185 31.2768 54.3148 29.6439ZM85.3847 150.296H81.9691C80.6673 150.296 79.612 149.241 79.612 147.939V135.23C79.612 134.452 80.2643 133.837 81.0422 133.857C81.2871 133.863 81.5317 133.864 81.776 133.867C82.0167 133.87 82.2571 133.877 82.4988 133.877C82.7444 133.877 82.9893 133.87 83.2346 133.867C83.4743 133.863 83.7138 133.863 83.9545 133.857C84.7326 133.836 85.3851 134.452 85.3851 135.231V150.296C85.3851 150.296 85.3849 150.296 85.3847 150.296ZM139.007 63.0764C139.006 63.6071 138.57 64.0339 138.04 64.0339H79.4651C78.1633 64.0339 77.108 65.0892 77.108 66.391V66.5777C77.108 67.8795 78.1633 68.9349 79.4651 68.9349H136.244C137.615 68.9349 138.7 70.1018 138.553 71.4652C137.019 85.6462 131.608 98.8003 122.931 109.157C113.566 120.334 101.409 127.12 88.2294 128.646L87.8427 128.686C87.7447 128.696 87.6464 128.706 87.5488 128.715C87.1404 128.757 86.7318 128.794 86.3241 128.826C86.2996 128.828 86.2752 128.829 86.25 128.831C85.8559 128.861 85.4627 128.887 85.0705 128.907C84.9693 128.912 84.8675 128.915 84.766 128.92C84.446 128.935 84.1263 128.949 83.8082 128.958C83.3722 128.969 82.9362 128.977 82.4985 128.977C82.0609 128.977 81.6245 128.97 81.1885 128.958C80.8721 128.949 80.5533 128.936 80.2349 128.92C80.1321 128.916 80.0287 128.913 79.9262 128.907C79.5359 128.886 79.1444 128.861 78.7525 128.831C78.7251 128.829 78.6977 128.828 78.6703 128.825C78.2665 128.794 77.8614 128.758 77.4567 128.716C77.3365 128.704 77.2163 128.693 77.0957 128.68L76.7712 128.646C63.5902 127.121 51.4321 120.335 42.0668 109.157C31.6995 96.7831 25.9905 80.4182 25.9905 63.0764C25.9905 61.7272 26.0272 60.3408 26.0998 58.9287C26.1354 58.2371 26.7102 57.6997 27.4027 57.6997H84.1053H89.0064H137.595C138.288 57.6997 138.863 58.2371 138.898 58.9287C138.971 60.3409 139.007 61.7275 139.007 63.0764Z" fill="#FF774C"/>
<path d="M70.575 64.0327H46.6777V68.9337H70.575V64.0327Z" fill="#FF774C"/>
<path d="M118.894 160.1H46.1013C44.7995 160.1 43.7441 161.155 43.7441 162.457V162.643C43.7441 163.945 44.7995 165.001 46.1013 165.001H118.894C120.196 165.001 121.252 163.945 121.252 162.643V162.457C121.252 161.155 120.196 160.1 118.894 160.1Z" fill="#FF774C"/>
</g>
<defs>
<clipPath id="clip0_61_12">
<rect width="165" height="165" fill="white"/>
</clipPath>
</defs>
</svg>
