<svg width="165" height="165" viewBox="0 0 165 165" fill="none" xmlns="http://www.w3.org/2000/svg">
<path d="M26.0327 2.08366C19.3123 3.96136 14.8639 10.8468 16.0833 17.4353C16.8736 21.6527 17.4676 22.476 26.5591 31.6022L34.9923 40.0353L33.8389 41.814C30.8409 46.5248 27.7438 54.1016 26.5245 59.7693L25.9635 62.4704L22.109 62.6024C18.682 62.7014 18.0567 62.8334 16.1459 63.7227C13.4449 65.0081 11.3692 67.0508 10.0838 69.7848C9.1945 71.6625 9.0625 72.2879 9.0625 74.7266C9.0625 77.1966 9.1945 77.7906 10.1168 79.7343C10.6762 80.9207 11.7635 82.5344 12.5209 83.2917C13.8722 84.6431 17.3966 86.5868 18.55 86.5868C18.913 86.5868 19.1093 86.8508 19.1093 87.4101C19.1093 90.5402 23.1617 150.894 23.4257 151.981C24.4141 155.605 28.0375 160.053 31.4315 161.667C34.9939 163.414 33.0172 163.35 82.3687 163.35C132.445 163.35 130.007 163.449 133.829 161.505C134.784 161.01 136.365 159.825 137.386 158.87C140.516 155.905 141.767 152.808 142.13 147.373C142.425 143.023 145.951 87.1494 145.951 86.8524C145.951 86.7204 146.215 86.5884 146.544 86.5884C147.862 86.5884 151.222 84.5457 152.837 82.767C155.012 80.396 155.934 77.9573 155.934 74.7282C155.901 69.9515 153.365 65.9321 149.016 63.7904C147.039 62.835 146.544 62.736 142.953 62.604C139.033 62.472 139.033 62.472 138.835 61.5827C135.804 48.1748 130.204 38.0603 121.34 29.9555C107.635 17.4039 89.0545 12.2642 70.8369 15.9536C67.5418 16.6119 61.4483 18.6876 57.9553 20.3013L55.0892 21.6197L46.4251 12.8895C38.7163 5.18073 37.4639 4.06036 35.3883 3.03902C32.5238 1.62332 29.0308 1.26031 26.0327 2.08366ZM32.6228 8.93613C33.2812 9.26613 39.8713 15.5906 47.5801 23.2994L61.384 37.1363L59.9667 39.047C59.1763 40.1013 57.0346 42.4724 55.2229 44.3517L51.9279 47.7458L37.959 33.8099C30.0522 25.9031 23.693 19.3146 23.2987 18.5573C22.2113 16.4816 22.3103 13.6815 23.5627 11.6388C24.9141 9.43112 27.4501 8.04842 29.8228 8.24477C30.7451 8.34377 31.9958 8.64078 32.6228 8.93613ZM92.5162 22.3127C111.623 26.3651 126.351 40.235 131.456 58.9146C131.819 60.266 132.116 61.6487 132.116 61.9457C132.116 62.505 129.743 62.538 82.3687 62.538C55.0249 62.538 32.6228 62.505 32.6228 62.439C32.6228 61.7807 34.5996 55.3886 35.4889 53.1479C36.7413 49.9848 39.0463 45.5381 39.6073 45.2081C40.0033 44.9441 46.8558 51.6645 46.6908 52.1595C46.6247 52.3245 45.7684 53.1479 44.78 53.9382C43.7917 54.7286 42.8364 55.6839 42.6054 56.0799C41.386 58.1556 43.0674 60.8897 45.5704 60.8897C48.4695 60.8897 61.9434 47.9751 67.1821 40.1673C70.0812 35.8839 72.0909 31.0742 71.6949 29.4275C70.8715 26.1324 66.6541 26.1324 65.4017 29.4275C65.0718 30.2508 64.7434 30.9092 64.6114 30.9092C64.3474 30.9092 60.295 26.8568 60.295 26.5928C60.295 26.2628 64.4794 24.5831 67.7398 23.5617C70.2115 22.7714 74.2292 21.915 77.0969 21.552C79.9316 21.1923 89.5181 21.6527 92.5162 22.3127ZM146.149 69.7535C149.576 71.3012 150.466 75.4526 148.027 78.3846C146.281 80.4603 150.829 80.3283 82.5667 80.3283C39.3433 80.3283 19.8733 80.2293 19.2133 79.9653C17.8949 79.472 16.2152 77.7576 15.7879 76.4409C14.9315 73.8372 16.7103 70.2138 19.2463 69.4895C19.8386 69.3245 46.2947 69.1925 82.5337 69.1595C142.46 69.1265 144.866 69.1595 146.149 69.7535ZM139.363 87.0488C139.363 87.1478 139.066 91.7595 138.705 97.3613C138.342 102.928 137.452 117.062 136.728 128.757C135.41 149.513 135.378 150.039 134.553 151.721C134.091 152.676 133.136 153.961 132.379 154.587C129.677 156.893 132.971 156.761 82.5337 156.761C31.7665 156.761 35.3569 156.926 32.5238 154.455C30.7121 152.874 29.7238 150.633 29.4928 147.668C29.2618 144.967 25.7044 88.3341 25.7044 87.4778C25.7044 86.9498 28.6364 86.9184 82.5337 86.9184C113.798 86.9168 139.363 86.9828 139.363 87.0488Z" fill="#FF774C"/>
<path d="M105.003 36.775C104.31 37.4993 104.113 38.0273 104.113 39.1147C104.113 40.4974 104.245 40.6624 108.166 44.6158C111.921 48.4042 112.284 48.7012 113.437 48.7012C115.249 48.7012 116.633 47.2855 116.633 45.4061C116.633 44.1208 116.435 43.8254 113.272 40.5304C108.958 35.9846 108.826 35.8526 107.21 35.8526C106.189 35.8526 105.694 36.0506 105.003 36.775Z" fill="#FF774C"/>
<path d="M103.913 46.9226C102.76 47.4819 102.135 48.5693 102.135 49.9866C102.135 51.206 104.803 54.8624 106.022 55.3244C108.032 56.1147 110.471 54.501 110.471 52.3263C110.471 51.239 108.428 47.9439 107.275 47.2196C106.121 46.4606 105.001 46.3616 103.913 46.9226Z" fill="#FF774C"/>
</svg>
