<svg width="280" height="280" viewBox="0 0 280 280" fill="none" xmlns="http://www.w3.org/2000/svg">
<path d="M122.282 152H134.938C134.6 156.486 133.358 160.466 131.21 163.938C129.062 167.379 126.071 170.084 122.236 172.05C118.4 174.017 113.752 175 108.291 175C104.088 175 100.298 174.263 96.9236 172.788C93.5793 171.282 90.7106 169.146 88.3175 166.381C85.955 163.585 84.1448 160.235 82.8869 156.333C81.629 152.399 81 147.99 81 143.104V137.988C81 133.102 81.6443 128.693 82.9329 124.76C84.2215 120.826 86.0624 117.477 88.4555 114.711C90.8794 111.915 93.7787 109.764 97.1537 108.259C100.559 106.753 104.364 106 108.567 106C114.028 106 118.646 107.014 122.42 109.042C126.193 111.039 129.124 113.79 131.21 117.293C133.296 120.796 134.554 124.821 134.984 129.369H122.328C122.082 126.542 121.469 124.145 120.487 122.178C119.536 120.212 118.094 118.721 116.161 117.707C114.258 116.663 111.727 116.14 108.567 116.14C106.113 116.14 103.95 116.601 102.078 117.523C100.237 118.445 98.7031 119.828 97.4758 121.671C96.2486 123.484 95.3281 125.758 94.7145 128.493C94.1009 131.197 93.7941 134.331 93.7941 137.896V143.104C93.7941 146.515 94.0702 149.572 94.6225 152.277C95.1747 154.981 96.0338 157.27 97.1997 159.144C98.3656 161.019 99.869 162.448 101.71 163.431C103.551 164.414 105.744 164.906 108.291 164.906C111.39 164.906 113.906 164.414 115.839 163.431C117.802 162.448 119.29 161.003 120.303 159.098C121.346 157.193 122.005 154.827 122.282 152Z" fill="white"/>
<path d="M199 138.818V142.275C199 147.345 198.325 151.908 196.975 155.964C195.625 159.989 193.707 163.415 191.222 166.242C188.737 169.069 185.776 171.236 182.34 172.741C178.904 174.247 175.084 175 170.881 175C166.739 175 162.934 174.247 159.467 172.741C156.031 171.236 153.055 169.069 150.539 166.242C148.023 163.415 146.075 159.989 144.694 155.964C143.314 151.908 142.623 147.345 142.623 142.275V138.818C142.623 133.717 143.314 129.154 144.694 125.128C146.075 121.103 148.008 117.677 150.493 114.85C152.978 111.992 155.939 109.81 159.375 108.305C162.842 106.799 166.647 106.046 170.789 106.046C174.992 106.046 178.812 106.799 182.248 108.305C185.684 109.81 188.645 111.992 191.13 114.85C193.646 117.677 195.579 121.103 196.929 125.128C198.31 129.154 199 133.717 199 138.818ZM186.206 142.275V138.725C186.206 135.069 185.868 131.858 185.193 129.092C184.518 126.296 183.521 123.945 182.202 122.04C180.883 120.135 179.257 118.706 177.324 117.754C175.391 116.77 173.212 116.279 170.789 116.279C168.334 116.279 166.156 116.77 164.254 117.754C162.382 118.706 160.787 120.135 159.467 122.04C158.148 123.945 157.135 126.296 156.43 129.092C155.755 131.858 155.417 135.069 155.417 138.725V142.275C155.417 145.9 155.755 149.112 156.43 151.908C157.135 154.704 158.148 157.07 159.467 159.006C160.817 160.911 162.443 162.355 164.346 163.339C166.248 164.322 168.426 164.814 170.881 164.814C173.335 164.814 175.514 164.322 177.416 163.339C179.318 162.355 180.913 160.911 182.202 159.006C183.521 157.07 184.518 154.704 185.193 151.908C185.868 149.112 186.206 145.9 186.206 142.275Z" fill="white"/>
</svg>
