<svg width="165" height="165" viewBox="0 0 165 165" fill="none" xmlns="http://www.w3.org/2000/svg">
<g clip-path="url(#clip0_58_852)">
<path d="M92.4715 0L72.5285 0C57.5575 0 45.375 12.1825 45.375 27.1535V71.5L45.375 107.25C45.375 114.832 51.5433 121 59.125 121H67.375L67.375 156.75C67.375 161.298 71.0765 165 75.625 165H86.625C90.0928 165 93.0545 162.844 94.2727 159.805C94.4955 159.522 94.6798 159.208 94.7815 158.84C94.897 158.411 94.8778 157.987 94.7925 157.578C94.82 157.303 94.875 157.033 94.875 156.75V121H105.875C113.457 121 119.625 114.832 119.625 107.25V52.25L119.625 27.1535C119.625 12.1825 107.443 0 92.4715 0ZM89.375 131.637C86.8532 130.938 85.25 129.346 85.25 127.875C85.25 126.404 86.8532 124.812 89.375 124.113V131.637ZM89.375 137.255V154.171C85.294 152.281 81.1195 149.174 81.6035 147.106C83.0115 141.067 76.1585 136.351 72.875 134.475L72.875 121H83.3938C81.136 122.735 79.75 125.152 79.75 127.875C79.75 132.533 83.8063 136.304 89.375 137.255ZM75.625 159.5C74.107 159.5 72.875 158.268 72.875 156.75V141.061C74.9375 142.656 76.56 144.512 76.2492 145.852C74.7587 152.234 82.28 156.992 87.505 159.321C87.2245 159.417 86.9357 159.5 86.625 159.5H75.625ZM94.875 115.5L67.375 115.5H59.125C57.4228 115.5 55.8387 114.98 54.5242 114.095L54.527 114.089C53.6415 113.49 52.8852 112.736 52.2885 111.851L52.283 111.854C51.3947 110.536 50.875 108.952 50.875 107.25V82.4945C50.9823 82.577 51.106 82.6348 51.2188 82.7118C51.4415 82.8685 51.6725 83.0033 51.9035 83.1463C52.3738 83.4378 52.8578 83.7045 53.3638 83.9382C53.6278 84.062 53.889 84.1775 54.1612 84.282C54.6947 84.491 55.2475 84.6533 55.8113 84.7962C56.067 84.8595 56.3145 84.9392 56.5758 84.9887C57.4035 85.1482 58.2505 85.25 59.125 85.25H61.875C69.4567 85.25 75.625 79.0817 75.625 71.5L75.625 47.267C75.625 43.4582 77.99 40.1335 81.2515 38.9647C81.4357 38.9015 81.62 38.841 81.8098 38.7915C82.0738 38.72 82.3433 38.6677 82.6155 38.6265C82.8878 38.5853 83.1628 38.5577 83.4433 38.5412C83.7375 38.5247 84.0318 38.5275 84.3205 38.5412C84.5983 38.5577 84.8733 38.5825 85.1428 38.6237C85.4315 38.6677 85.7175 38.731 85.998 38.808C86.2455 38.874 86.4875 38.9455 86.724 39.0335C87.0265 39.1463 87.3207 39.281 87.6095 39.4323C87.7992 39.5312 87.9917 39.6275 88.1732 39.7375C88.5005 39.941 88.8112 40.1747 89.111 40.425C89.2347 40.5267 89.3668 40.623 89.4823 40.733C89.8123 41.041 90.1037 41.3792 90.376 41.7313C90.442 41.8165 90.519 41.8935 90.5822 41.9815C90.8792 42.3967 91.1295 42.8395 91.344 43.2987C91.366 43.3427 91.3935 43.384 91.4155 43.4308C91.6383 43.9313 91.8088 44.4565 91.927 44.99C91.9298 45.0065 91.938 45.023 91.9435 45.0423C92.0617 45.6005 92.125 46.1725 92.125 46.75V52.25C92.125 59.8317 98.2933 66 105.875 66C106.75 66 107.597 65.8983 108.427 65.7415C108.688 65.692 108.936 65.6123 109.192 65.549C109.755 65.4088 110.308 65.2438 110.841 65.0348C111.114 64.9275 111.375 64.812 111.639 64.691C112.145 64.4573 112.629 64.1905 113.099 63.899C113.33 63.756 113.564 63.6185 113.784 63.4645C113.894 63.3875 114.018 63.327 114.128 63.2473V107.25C114.128 108.952 113.608 110.536 112.723 111.851L112.717 111.848C112.117 112.733 111.364 113.49 110.479 114.086L110.481 114.092C109.161 114.98 107.577 115.5 105.875 115.5H94.875ZM105.875 60.5C101.327 60.5 97.625 56.7985 97.625 52.25V46.75C97.625 45.7765 97.5177 44.8278 97.3225 43.912C97.3032 43.8213 97.262 43.7388 97.24 43.6507C97.0475 42.8175 96.7918 42.0117 96.4535 41.2445C96.382 41.0822 96.2775 40.9338 96.1977 40.7743C95.8705 40.1032 95.513 39.4515 95.084 38.8437C94.93 38.6265 94.7402 38.4367 94.5752 38.225C94.1655 37.7107 93.742 37.213 93.2635 36.762C93.1948 36.6987 93.148 36.619 93.0793 36.5558C92.906 36.399 92.697 36.2917 92.5155 36.146C92.0507 35.7665 91.5777 35.4035 91.0635 35.0845C90.7637 34.9003 90.453 34.7463 90.1422 34.584C89.6362 34.3228 89.122 34.0835 88.583 33.8855C88.231 33.7562 87.879 33.6545 87.5188 33.5555C86.999 33.4125 86.4737 33.2943 85.932 33.2118C85.514 33.1485 85.096 33.11 84.6725 33.0853C84.403 33.066 84.1473 33 83.875 33C83.6275 33 83.3965 33.0605 83.1517 33.0742C82.9235 33.0853 82.698 33.0468 82.4697 33.0715C82.2277 33.0963 82.005 33.176 81.7685 33.2145C81.3285 33.2832 80.8995 33.3685 80.476 33.4785C80.124 33.572 79.7803 33.6793 79.4393 33.8003C78.8452 34.0037 78.2788 34.2403 77.7233 34.5208C77.6518 34.5593 77.583 34.595 77.5143 34.6335C73.1445 36.938 70.125 41.4755 70.125 46.75V47.267L70.125 71.5C70.125 76.0485 66.4235 79.75 61.875 79.75H59.125C54.5765 79.75 50.875 76.0485 50.875 71.5L50.875 27.1535C50.875 15.213 60.588 5.5 72.5285 5.5L92.4715 5.5C104.412 5.5 114.125 15.213 114.125 27.1535L114.125 52.25C114.125 56.7985 110.424 60.5 105.875 60.5Z" fill="#FF774C"/>
</g>
<defs>
<clipPath id="clip0_58_852">
<rect width="165" height="165" fill="white"/>
</clipPath>
</defs>
</svg>
