<svg width="100" height="100" viewBox="0 0 100 100" fill="none" xmlns="http://www.w3.org/2000/svg">
<path d="M77.1301 83.0287V59.9557H67.5066V43.3755H51.2743V30.3897C53.5932 29.8099 55.3324 27.2592 55.3324 24.2446C55.3324 21.1141 51.5062 16.3603 51.0424 15.7806L50.2308 14.853L49.4192 15.7806C48.9554 16.3603 44.8973 20.9981 44.8973 24.2446C44.8973 27.2592 46.7524 29.8099 49.0713 30.3897V43.3755H32.4912V59.9557H22.8678V83.0287H15.4473V84.9998H84.5505V83.0287H77.1301ZM46.9843 24.2446C46.9843 22.7373 48.7235 19.9546 50.2308 18.0995C51.5062 19.7227 53.3613 22.6213 53.3613 24.2446C53.3613 26.5635 51.97 28.5345 50.2308 28.5345C48.3757 28.5345 46.9843 26.5635 46.9843 24.2446ZM73.5358 62.0427C73.072 65.521 70.1733 68.1878 66.579 68.1878C62.9848 68.1878 60.0861 65.521 59.6223 62.0427H73.5358ZM64.608 45.3466C64.1442 46.9698 62.7529 48.1293 61.0137 48.1293C59.2745 48.1293 57.8832 46.9698 57.4194 45.3466H64.608ZM53.5932 45.3466C53.1294 46.9698 51.7381 48.1293 49.9989 48.1293C48.2597 48.1293 46.8684 46.9698 46.4046 45.3466H53.5932ZM43.0422 45.3466C42.5784 46.9698 41.1871 48.1293 39.4479 48.1293C37.7087 48.1293 36.3174 46.9698 35.8536 45.3466H43.0422ZM34.5782 47.4336C35.6217 49.0568 37.3609 50.1003 39.4479 50.1003C41.7668 50.1003 43.8538 48.709 44.7814 46.622C45.7089 48.709 47.68 50.1003 50.1148 50.1003C52.6656 50.1003 54.8686 48.4771 55.5643 46.1582C56.3759 48.4771 58.4629 50.1003 61.0137 50.1003C62.8688 50.1003 64.492 49.1728 65.5355 47.8974V59.9557H34.5782V47.4336ZM57.0715 62.0427C56.6078 65.521 53.7091 68.1878 50.1148 68.1878C46.5205 68.1878 43.6219 65.521 43.1581 62.0427H57.0715ZM40.4914 62.0427C40.0276 65.521 37.129 68.1878 33.5347 68.1878C29.9404 68.1878 27.0418 65.521 26.578 62.0427H40.4914ZM24.8388 63.8978C25.9983 67.4921 29.4766 70.1588 33.4188 70.1588C37.129 70.1588 40.2595 67.9559 41.6509 64.8254C43.1581 67.9559 46.2887 70.1588 49.883 70.1588C53.5932 70.1588 56.7237 67.9559 58.1151 64.8254C59.6223 67.9559 62.7529 70.1588 66.3472 70.1588C70.4052 70.1588 73.7676 67.4921 74.9271 63.8978V83.0287H24.8388V63.8978Z" fill="#5B0E27"/>
</svg>
