<svg width="280" height="280" viewBox="0 0 280 280" fill="none" xmlns="http://www.w3.org/2000/svg">
<g clip-path="url(#clip0_81_10)">
<path d="M169.596 142.961H169.506C170.846 141.19 171.672 139.009 171.672 136.622V134.364C171.672 131.134 170.412 128.332 168.125 126.48C167.231 125.756 166.226 125.223 165.143 124.876C165.727 120.94 166.395 112.678 162.498 109C161.791 108.331 161.054 107.889 160.298 107.586C161.617 92.9802 154.332 81.1235 148.391 80.0807C146.081 79.6679 143.293 80.7679 142.366 85.0502C141.375 89.6321 138.274 90.0924 132.421 90.5669C129.036 90.8436 125.198 91.1552 121.835 92.9665C119.439 94.2558 117.898 96.158 117.257 98.617C116.324 102.194 117.622 106.125 118.747 108.604C116.686 109.124 114.911 109.975 113.568 111.317C109.314 115.57 111.277 122.616 112.478 125.786C112.246 125.959 112.015 126.133 111.797 126.326C109.539 128.327 108.295 131.18 108.295 134.365V136.622C108.295 139.01 109.121 141.19 110.461 142.962H110.407C109.241 142.962 108.295 143.907 108.295 145.074C108.295 146.242 109.241 147.187 110.407 147.187H114.921L122.429 198.195C122.582 199.233 123.471 200 124.519 200H157.558C158.606 200 159.495 199.233 159.648 198.195L167.157 147.187H169.594C170.761 147.187 171.707 146.242 171.707 145.074C171.709 143.906 170.763 142.961 169.596 142.961ZM121.345 99.6833C121.684 98.3877 122.5 97.4061 123.839 96.6857C126.422 95.2929 129.646 95.0311 132.764 94.7795C138.404 94.3215 144.795 93.8035 146.497 85.9456C146.762 84.722 147.159 84.1549 147.662 84.2418C150.897 84.8101 157.282 94.2249 156.095 107.204C154.772 107.391 153.406 107.773 152.012 108.167C148.96 109.027 145.497 109.997 141.26 109.475L138.502 109.12C133.179 108.429 127.764 107.735 123.142 107.982C122.114 106.062 120.628 102.434 121.345 99.6833ZM116.556 114.304C119.9 110.964 129.494 112.21 137.957 113.31L140.735 113.666C145.833 114.306 149.894 113.155 153.159 112.232C156.849 111.188 158.362 110.906 159.598 112.069C161.735 114.089 161.601 120.185 160.937 124.47C160.514 124.514 160.088 124.578 159.655 124.67C159.588 124.687 152.89 126.366 148.165 126.366C139.375 126.366 120.443 123.844 120.228 123.818C118.881 123.653 117.571 123.732 116.332 124.015C115.431 121.543 114.131 116.729 116.556 114.304ZM126.345 195.774L124.507 183.284L136.996 195.774H126.345ZM142.971 195.774L124.577 177.38C124.288 177.092 123.93 176.941 123.56 176.854L121.954 165.944L151.784 195.774H142.971ZM155.995 194.01L120.922 158.938L119.394 148.554C119.427 148.593 119.44 148.642 119.477 148.679L157.125 186.327L155.995 194.01ZM157.892 181.12L123.958 147.186H132.772L158.58 172.995C158.717 173.131 158.883 173.211 159.043 173.302L157.892 181.12ZM159.79 168.23L138.746 147.186H147.559L160.301 159.927C160.492 160.118 160.715 160.254 160.949 160.357L159.79 168.23ZM161.687 155.339L153.534 147.186H161.115H162.887L161.687 155.339ZM167.446 136.622C167.446 140.116 164.607 142.961 161.115 142.961H118.852C115.36 142.961 112.521 140.116 112.521 136.622V134.364C112.521 132.407 113.259 130.676 114.599 129.487C115.734 128.483 117.204 127.952 118.796 127.952C119.091 127.952 119.39 127.971 119.691 128.008C120.479 128.114 139.093 130.592 148.165 130.592C153.419 130.592 160.397 128.842 160.611 128.787C162.483 128.39 164.202 128.737 165.465 129.764C166.743 130.797 167.446 132.431 167.446 134.364V136.622Z" fill="#222222"/>
</g>
<defs>
<clipPath id="clip0_81_10">
<rect width="120" height="120" fill="white" transform="translate(80 80)"/>
</clipPath>
</defs>
</svg>
