<svg width="215" height="215" viewBox="0 0 215 215" fill="none" xmlns="http://www.w3.org/2000/svg">
<path d="M82.4134 101L87 88.0046L91.5866 101H82.4134Z" stroke="#5B0E27" stroke-width="2"/>
<path d="M57.5204 81.4442L58.4699 81.4065C59.8308 81.3524 61.4648 81.3796 63.0312 81.4059L63.0363 81.406C64.6149 81.4324 66.12 81.4576 67.2919 81.4071C68.7909 81.3077 69.9771 80.7856 70.7661 80.0142C71.5459 79.2518 72.0007 78.1871 71.9526 76.8528C71.9006 75.4113 71.494 74.2905 70.7839 73.5309C70.0872 72.7856 68.9814 72.263 67.2639 72.2373C58.2546 72.1033 47.0915 72.1033 38.0822 72.2373M57.5204 81.4442L38.0673 71.2374M57.5204 81.4442L57.5097 82.3945C57.4514 87.5774 57.4678 92.8334 57.484 98.0735C57.503 104.168 57.5219 110.241 57.4232 116.153V116.153C57.3979 117.685 56.957 118.551 56.3273 119.158C55.6433 119.818 54.6441 120.27 53.2788 120.769M57.5204 81.4442L53.2788 120.769M38.0822 72.2373L38.0673 71.2374M38.0822 72.2373C38.0822 72.2373 38.0823 72.2373 38.0824 72.2373L38.0673 71.2374M38.0822 72.2373C36.3806 72.263 35.2781 72.7824 34.5778 73.5287C33.8636 74.2897 33.4486 75.4135 33.3836 76.8617C33.3238 78.1938 33.7781 79.2543 34.5626 80.0149C35.3581 80.786 36.5569 81.3074 38.0637 81.4071M38.0673 71.2374C34.25 71.295 32.5288 73.6053 32.3846 76.8168C32.2404 80.0283 34.6058 82.1852 38.0096 82.4057M38.0637 81.4071C38.06 81.407 38.0563 81.4068 38.0526 81.4066L38.0096 82.4057M38.0637 81.4071C39.2514 81.4576 40.7681 81.4323 42.3528 81.4059L42.3535 81.4059C43.9245 81.3796 45.5587 81.3524 46.9148 81.4065L47.8618 81.4443L47.8749 82.3919C47.9466 87.5708 47.9224 92.8774 47.8984 98.1638C47.8966 98.5644 47.8948 98.9648 47.893 99.3651C47.8678 105.052 47.851 110.704 47.9613 116.159L47.9613 116.159C47.995 117.853 48.5384 118.804 49.2988 119.427C50.1197 120.101 51.3142 120.495 52.8465 120.796L52.8519 120.797C52.9943 120.826 53.1417 120.816 53.2788 120.769M38.0637 81.4071C38.0672 81.4074 38.0707 81.4076 38.0743 81.4078L38.0096 82.4057M38.0096 82.4057L53.2788 120.769M172.24 73.9053L156.148 89.9491L154.442 91.65V89.2409V76.9127C154.442 75.6534 153.941 74.445 153.046 73.5536C152.152 72.6621 150.939 72.1608 149.673 72.1608C148.407 72.1608 147.194 72.6621 146.3 73.5536C145.406 74.445 144.904 75.6534 144.904 76.9127V116.217C144.904 117.477 145.406 118.685 146.3 119.576C147.194 120.468 148.407 120.969 149.673 120.969C150.939 120.969 152.152 120.468 153.046 119.576C153.941 118.685 154.442 117.477 154.442 116.217V103.669V103.254L154.736 102.96L156.736 100.966L157.548 100.158L158.239 101.071L171.768 118.93L171.772 118.936C172.339 119.694 173.12 120.267 174.015 120.581C174.911 120.895 175.88 120.935 176.799 120.696C177.718 120.458 178.544 119.952 179.173 119.243C179.685 118.665 180.046 117.974 180.229 117.23L180.298 116.74C180.473 115.495 180.145 114.231 179.385 113.226L172.24 73.9053ZM172.24 73.9053C172.241 73.9048 172.242 73.9042 172.242 73.9037C172.569 73.5823 172.956 73.3286 173.382 73.1577C173.807 72.9872 174.262 72.9024 174.72 72.9083C175.913 72.941 177.052 73.4111 177.918 74.228C178.785 75.046 179.319 76.154 179.417 77.3392C179.457 77.8357 179.39 78.3351 179.222 78.8042C179.054 79.271 178.788 79.6971 178.442 80.0543C178.44 80.0561 178.439 80.0579 178.437 80.0598L165.276 93.1527L164.656 93.7687L165.183 94.4652L179.385 113.225L172.24 73.9053ZM44.7019 197.348C43.709 197.229 43.709 197.229 43.7089 197.23L43.7088 197.231L43.7087 197.232L43.7082 197.236L43.7072 197.245L43.7046 197.271C43.7026 197.291 43.7002 197.318 43.6979 197.351C43.6933 197.416 43.6887 197.504 43.6876 197.611C43.6853 197.822 43.6963 198.116 43.7525 198.442C43.8592 199.061 44.168 200 45.0906 200.54L45.1182 200.556L45.1469 200.571C45.635 200.816 46.168 200.96 46.7134 200.993C47.2286 201.024 47.7447 200.956 48.2336 200.792C48.5721 200.724 48.9633 200.561 49.3361 200.386C49.7869 200.175 50.334 199.887 50.9571 199.537C52.2053 198.836 53.8074 197.862 55.6445 196.702C59.3212 194.38 63.9804 191.289 68.7137 188.09C77.3675 182.243 86.2937 176.023 89.9667 173.463C90.1749 173.318 90.3662 173.185 90.5396 173.064C96.327 173.847 102.162 174.233 108.002 174.219C163.547 174.218 209 138.789 209 94.6094C209 50.4289 163.545 15 108 15C52.4546 15 7 50.4289 7 94.6094C7 122.906 25.7014 147.671 53.6817 161.739C52.7291 165.019 50.4899 172.735 48.3762 180.136C47.2203 184.184 46.1012 188.14 45.2504 191.226C44.8251 192.769 44.4658 194.098 44.2023 195.113C43.946 196.101 43.7629 196.856 43.7123 197.204L43.7105 197.217L43.709 197.229L44.7019 197.348ZM106.572 120.266L106.565 120.269L106.558 120.273C105.534 120.737 104.422 120.978 103.297 120.979C101.088 120.979 99.7924 120.106 99.4317 119.101L99.4275 119.089L99.423 119.078L96.5384 111.619L96.2912 110.98H95.6058H78.0481H77.3626L77.1154 111.619L74.2308 119.078L74.2261 119.09L74.2216 119.102C73.8692 120.09 72.5718 120.979 70.3558 120.979C69.2347 120.979 68.1269 120.738 67.1076 120.273C66.5407 120.015 65.9843 119.542 65.7116 118.587C65.4256 117.584 65.4248 115.95 66.261 113.347L80.088 77.1545L80.0909 77.147L80.0936 77.1394C80.6065 75.7294 81.5252 74.501 82.7353 73.6082C83.931 72.7261 85.3586 72.2104 86.8434 72.1241C88.3285 72.2185 89.7548 72.7388 90.9505 73.6224C92.1605 74.5166 93.0814 75.7439 93.6 77.1527L93.6 77.1527L93.604 77.1632L107.383 113.338C108.224 115.946 108.226 117.592 107.941 118.603C107.669 119.567 107.115 120.03 106.572 120.266ZM137.018 120.183H136.125H117.615H117.606L117.596 120.183C116.426 120.206 115.294 119.767 114.45 118.961C113.608 118.158 113.118 117.057 113.087 115.898V76.8955C113.142 75.6453 113.678 74.4635 114.585 73.5955C115.496 72.7229 116.711 72.2351 117.976 72.2351C119.241 72.2351 120.456 72.7229 121.367 73.5955C122.274 74.4635 122.81 75.6453 122.865 76.8955V110.667V111.667H123.865H136.125H136.155L136.185 111.665C136.771 111.63 137.357 111.714 137.909 111.913C138.46 112.113 138.965 112.422 139.391 112.823C139.818 113.223 140.158 113.706 140.39 114.242C140.622 114.778 140.742 115.356 140.742 115.939C140.742 116.523 140.622 117.1 140.39 117.636C140.158 118.172 139.818 118.656 139.391 119.056C138.965 119.457 138.46 119.766 137.909 119.965C137.62 120.07 137.321 120.142 137.018 120.183Z" stroke="#5B0E27" stroke-width="2"/>
</svg>
