<?xml version="1.0" encoding="utf-8"?>
<!-- Generator: Adobe Illustrator 25.4.1, SVG Export Plug-In . SVG Version: 6.00 Build 0)  -->
<svg version="1.1" id="Layer_1" xmlns="http://www.w3.org/2000/svg" xmlns:xlink="http://www.w3.org/1999/xlink" x="0px" y="0px"
	 viewBox="0 0 68 68" style="enable-background:new 0 0 68 68;" xml:space="preserve">
<style type="text/css">
	.st0{fill:none;stroke:#D3C22A;stroke-miterlimit:10;}
	.st1{fill:#D3C22A;}
	.st2{fill:#5B0E27;}
	.st3{fill:none;stroke:#000000;stroke-miterlimit:10;}
	.st4{fill:none;stroke:#010202;stroke-miterlimit:10;}
	.st5{fill:none;stroke:#5B0E27;stroke-miterlimit:10;}
</style>
<g>
	<g>
		<path class="st2" d="M64.3,51.1H3.7V39.7h0.6c3.1,0,5.7-2.6,5.7-5.7s-2.6-5.7-5.7-5.7H3.7V16.9h60.7v11.4h-0.6
			c-3.1,0-5.7,2.6-5.7,5.7s2.6,5.7,5.7,5.7h0.6V51.1z M5,49.8h58.1V41c-3.6-0.3-6.3-3.3-6.3-7s2.8-6.6,6.3-7v-8.9H5v8.9
			c3.6,0.3,6.3,3.3,6.3,7S8.5,40.6,5,41V49.8z"/>
	</g>
	<g>
		<g>
			<g>
				<rect x="19.5" y="22.4" class="st2" width="1.3" height="2.3"/>
			</g>
		</g>
		<g>
			<g>
				<rect x="19.5" y="25.9" class="st2" width="1.3" height="2.3"/>
			</g>
		</g>
		<g>
			<g>
				<rect x="19.5" y="29.4" class="st2" width="1.3" height="2.3"/>
			</g>
		</g>
		<g>
			<g>
				<rect x="19.5" y="32.9" class="st2" width="1.3" height="2.3"/>
			</g>
		</g>
		<g>
			<g>
				<rect x="19.5" y="36.4" class="st2" width="1.3" height="2.3"/>
			</g>
		</g>
		<g>
			<g>
				<rect x="19.5" y="39.9" class="st2" width="1.3" height="2.3"/>
			</g>
		</g>
		<g>
			<g>
				<rect x="19.5" y="43.4" class="st2" width="1.3" height="2.3"/>
			</g>
		</g>
	</g>
	<g>
		<g>
			<path class="st2" d="M32.4,36.3h-1.9v-8l-1.2,0.5v-2.1l1.5-0.7h1.6V36.3z"/>
		</g>
		<g>
			<path class="st2" d="M35.9,36c-0.4-0.2-0.8-0.6-1-1.1c-0.3-0.5-0.4-1-0.5-1.7v0h1.9v0c0,0.4,0.2,0.7,0.3,0.9
				c0.2,0.2,0.4,0.3,0.7,0.3c0.3,0,0.6-0.1,0.8-0.3c0.2-0.2,0.3-0.5,0.3-0.9v-0.9c0-0.4-0.1-0.7-0.2-0.9c-0.2-0.2-0.4-0.3-0.7-0.3
				c-0.3,0-0.5,0.1-0.7,0.2c-0.2,0.1-0.3,0.3-0.4,0.6h-1.8V26h5.5v1.9h-3.5v1.8c0.1-0.1,0.3-0.3,0.6-0.3c0.2-0.1,0.5-0.1,0.7-0.1
				c0.5,0,1,0.1,1.4,0.4s0.7,0.6,0.9,1.1s0.3,1,0.3,1.7v0.9c0,0.7-0.1,1.2-0.4,1.7c-0.2,0.5-0.6,0.8-1,1.1c-0.4,0.2-1,0.4-1.6,0.4
				C36.8,36.4,36.3,36.2,35.9,36z"/>
		</g>
		<g>
			<path class="st2" d="M42.3,29.9c-0.3-0.3-0.5-0.8-0.5-1.3v-0.9c0-0.6,0.2-1,0.5-1.3c0.3-0.3,0.8-0.5,1.4-0.5c0.6,0,1,0.2,1.4,0.5
				c0.3,0.3,0.5,0.8,0.5,1.3v0.9c0,0.6-0.2,1-0.5,1.3c-0.3,0.3-0.8,0.5-1.4,0.5C43.1,30.4,42.6,30.2,42.3,29.9z M48.1,26h1.7
				l-5.3,10.3h-1.7L48.1,26z M43.9,28.8c0.1-0.1,0.1-0.2,0.1-0.3v-0.8c0-0.1,0-0.2-0.1-0.3c-0.1-0.1-0.1-0.1-0.2-0.1
				c-0.1,0-0.2,0-0.2,0.1c-0.1,0.1-0.1,0.2-0.1,0.3v0.8c0,0.1,0,0.2,0.1,0.3c0.1,0.1,0.1,0.1,0.2,0.1C43.8,28.9,43.9,28.9,43.9,28.8
				z M47.4,35.9c-0.3-0.3-0.5-0.8-0.5-1.3v-0.9c0-0.6,0.2-1,0.5-1.3c0.3-0.3,0.8-0.5,1.4-0.5c0.6,0,1,0.2,1.4,0.5
				c0.3,0.3,0.5,0.8,0.5,1.3v0.9c0,0.6-0.2,1-0.5,1.3c-0.3,0.3-0.8,0.5-1.4,0.5C48.1,36.4,47.7,36.2,47.4,35.9z M49,34.8
				c0.1-0.1,0.1-0.2,0.1-0.3v-0.8c0-0.1,0-0.2-0.1-0.3c-0.1-0.1-0.1-0.1-0.2-0.1s-0.2,0-0.2,0.1c-0.1,0.1-0.1,0.2-0.1,0.3v0.8
				c0,0.1,0,0.2,0.1,0.3c0.1,0.1,0.1,0.1,0.2,0.1S48.9,34.9,49,34.8z"/>
		</g>
	</g>
	<g>
		<g>
			<path class="st2" d="M29.2,39.7h0.6v3h-0.6V39.7z M29.5,42.1h0.8c0.2,0,0.4,0,0.5-0.1c0.1-0.1,0.2-0.2,0.2-0.4v-0.9
				c0-0.2-0.1-0.3-0.2-0.4c-0.1-0.1-0.3-0.1-0.5-0.1h-0.8v-0.5h0.8c0.3,0,0.5,0,0.7,0.1c0.2,0.1,0.3,0.2,0.4,0.4
				c0.1,0.2,0.2,0.4,0.2,0.6v0.9c0,0.2,0,0.4-0.1,0.6c-0.1,0.2-0.2,0.3-0.4,0.4c-0.2,0.1-0.4,0.1-0.7,0.1h-0.8V42.1z"/>
		</g>
		<g>
			<path class="st2" d="M32.9,42.7h-0.7v-3h0.7V42.7z"/>
		</g>
		<g>
			<path class="st2" d="M34.1,42.7c-0.2,0-0.3-0.1-0.4-0.1c-0.1-0.1-0.3-0.1-0.4-0.2l0.3-0.5c0.1,0.1,0.3,0.2,0.4,0.2
				c0.2,0.1,0.3,0.1,0.5,0.1c0.2,0,0.4,0,0.5-0.1c0.1-0.1,0.2-0.2,0.2-0.3v0c0-0.1,0-0.1-0.1-0.2c-0.1,0-0.1-0.1-0.2-0.1
				c-0.1,0-0.2,0-0.3-0.1c0,0,0,0,0,0c0,0,0,0,0,0l-0.1,0c-0.2,0-0.4-0.1-0.6-0.1c-0.1,0-0.3-0.1-0.4-0.2c-0.1-0.1-0.2-0.3-0.2-0.5
				v0c0-0.2,0-0.4,0.1-0.5c0.1-0.1,0.2-0.2,0.4-0.3c0.2-0.1,0.4-0.1,0.7-0.1c0.1,0,0.2,0,0.4,0c0.1,0,0.2,0.1,0.4,0.1
				c0.1,0,0.2,0.1,0.3,0.2l-0.3,0.5c-0.1-0.1-0.3-0.1-0.4-0.2c-0.1,0-0.3-0.1-0.4-0.1c-0.2,0-0.3,0-0.4,0.1
				c-0.1,0.1-0.2,0.1-0.2,0.2v0c0,0.1,0,0.2,0.1,0.2c0.1,0.1,0.1,0.1,0.2,0.1c0.1,0,0.2,0,0.3,0.1c0,0,0,0,0,0c0,0,0,0,0,0
				c0,0,0,0,0,0c0,0,0,0,0,0c0.2,0,0.4,0.1,0.5,0.1c0.1,0.1,0.3,0.1,0.4,0.3c0.1,0.1,0.1,0.3,0.1,0.5v0c0,0.2,0,0.4-0.1,0.5
				c-0.1,0.1-0.2,0.2-0.4,0.3c-0.2,0.1-0.4,0.1-0.7,0.1C34.4,42.7,34.3,42.7,34.1,42.7z"/>
		</g>
		<g>
			<path class="st2" d="M36.8,42.6c-0.2-0.1-0.3-0.2-0.4-0.4c-0.1-0.2-0.1-0.4-0.1-0.6v-0.8c0-0.2,0-0.4,0.1-0.6
				c0.1-0.2,0.2-0.3,0.4-0.4c0.2-0.1,0.4-0.1,0.7-0.1c0.2,0,0.4,0,0.6,0.1c0.2,0.1,0.3,0.2,0.4,0.4c0.1,0.2,0.2,0.3,0.2,0.6H38
				c0-0.1-0.1-0.2-0.1-0.3c-0.1-0.1-0.1-0.1-0.2-0.2c-0.1,0-0.2-0.1-0.2-0.1c-0.1,0-0.2,0-0.3,0.1c-0.1,0-0.1,0.1-0.2,0.2
				s-0.1,0.2-0.1,0.3v0.8c0,0.1,0,0.2,0.1,0.3c0,0.1,0.1,0.1,0.2,0.2c0.1,0,0.2,0.1,0.3,0.1c0.1,0,0.2,0,0.2-0.1
				c0.1,0,0.1-0.1,0.2-0.2c0.1-0.1,0.1-0.2,0.1-0.3h0.7c0,0.2-0.1,0.4-0.2,0.6c-0.1,0.2-0.2,0.3-0.4,0.4c-0.2,0.1-0.4,0.1-0.6,0.1
				C37.2,42.7,37,42.7,36.8,42.6z"/>
		</g>
		<g>
			<path class="st2" d="M39.7,42.6c-0.2-0.1-0.3-0.2-0.4-0.4c-0.1-0.2-0.2-0.4-0.2-0.6v-0.9c0-0.2,0.1-0.4,0.2-0.6
				c0.1-0.2,0.2-0.3,0.4-0.4c0.2-0.1,0.4-0.1,0.6-0.1c0.2,0,0.5,0,0.6,0.1c0.2,0.1,0.3,0.2,0.4,0.4c0.1,0.2,0.2,0.4,0.2,0.6v0.9
				c0,0.2-0.1,0.4-0.2,0.6c-0.1,0.2-0.2,0.3-0.4,0.4c-0.2,0.1-0.4,0.1-0.6,0.1C40.1,42.7,39.8,42.7,39.7,42.6z M40.6,42.1
				c0.1,0,0.2-0.1,0.2-0.2s0.1-0.2,0.1-0.3v-0.9c0-0.1,0-0.2-0.1-0.3s-0.1-0.1-0.2-0.2c-0.1,0-0.2-0.1-0.3-0.1c-0.1,0-0.2,0-0.3,0.1
				c-0.1,0-0.2,0.1-0.2,0.2c0,0.1-0.1,0.2-0.1,0.3v0.9c0,0.1,0,0.2,0.1,0.3c0,0.1,0.1,0.1,0.2,0.2c0.1,0,0.2,0.1,0.3,0.1
				C40.4,42.2,40.5,42.1,40.6,42.1z"/>
		</g>
		<g>
			<path class="st2" d="M42.6,42.6c-0.2-0.1-0.3-0.2-0.4-0.4S42,41.8,42,41.6v-1.9h0.6v1.9c0,0.2,0.1,0.3,0.2,0.4
				c0.1,0.1,0.2,0.1,0.4,0.1c0.2,0,0.3,0,0.4-0.1c0.1-0.1,0.2-0.2,0.2-0.4v-1.9h0.6v1.9c0,0.2,0,0.4-0.1,0.6s-0.2,0.3-0.4,0.4
				c-0.2,0.1-0.4,0.1-0.7,0.1C43,42.7,42.8,42.7,42.6,42.6z"/>
		</g>
		<g>
			<path class="st2" d="M45.1,39.7h0.8l1.2,2.3L47.1,42v-2.4h0.6v3h-0.8l-1.2-2.3l0.1-0.1v2.3h-0.6V39.7z"/>
		</g>
		<g>
			<path class="st2" d="M48.1,39.7h2.4v0.5h-2.4V39.7z M49,39.9h0.6v2.8H49V39.9z"/>
		</g>
	</g>
</g>
</svg>
