<svg width="40" height="40" viewBox="0 0 40 40" fill="none" xmlns="http://www.w3.org/2000/svg">
<g clip-path="url(#clip0_58_981)">
<path d="M20.0007 4.06152C11.7369 4.06152 5.0918 10.3076 5.0918 18.0183C5.0918 23.7044 7.43463 26.4182 10.672 28.9167V35.5935C10.672 35.8951 11.0128 36.1104 11.2684 35.8951L16.9337 31.6305L17.0615 31.6736C17.9987 31.8459 18.9784 31.932 20.0007 31.932C28.2645 31.932 34.9097 25.6859 34.9097 17.9752C34.9097 10.3076 28.2219 4.06152 20.0007 4.06152Z" fill="#8E1F44"/>
<path d="M19.9999 3.24316C11.3527 3.24316 4.32422 9.79079 4.32422 17.8892C4.32422 23.8768 6.79484 26.7198 10.2026 29.3044V36.3259C10.2026 36.6705 10.586 36.8428 10.8416 36.6705L16.8051 32.1906L16.9329 32.2336C17.9126 32.4059 18.9776 32.5352 19.9999 32.5352C28.6471 32.5352 35.6756 25.9875 35.6756 17.8892C35.6756 9.79079 28.6471 3.24316 19.9999 3.24316ZM14.7605 21.6368C16.294 21.6368 17.6145 20.6891 17.9978 19.2676H20.2555C19.7017 22.0245 17.5719 23.8337 14.7179 23.8337C11.4379 23.8337 8.7969 21.3353 8.7969 17.8892C8.7969 14.443 11.3953 11.9446 14.7179 11.9446C17.5719 11.9446 19.7443 13.7969 20.2555 16.5969H17.9978C17.6571 15.0892 16.294 14.0984 14.7179 14.0984C12.5028 14.0984 11.0119 15.6923 11.0119 17.8461C11.0545 20.043 12.7158 21.6368 14.7605 21.6368ZM29.712 23.6183H27.6247V18.8799C27.6247 17.803 26.9858 17.1999 26.0061 17.1999C24.9411 17.1999 24.217 17.8892 24.217 19.2245V23.6183H22.1297V11.9877H24.217V16.3384C24.7282 15.563 25.5375 15.1754 26.6024 15.1754C27.497 15.1754 28.2211 15.4769 28.7749 16.08C29.3712 16.683 29.6268 17.5015 29.6268 18.5784V23.6183H29.712Z" fill="white"/>
</g>
<defs>
<clipPath id="clip0_58_981">
<rect width="31.3514" height="33.5135" fill="white" transform="translate(4.32422 3.24316)"/>
</clipPath>
</defs>
</svg>
