<svg width="794" height="108" viewBox="0 0 794 108" fill="none" xmlns="http://www.w3.org/2000/svg">
<path d="M0.466554 79.4715C1.81292 79.65 2.94277 79.9658 4.02303 80.3622C5.11084 80.7405 6.0919 81.2979 7.16947 81.688C8.21036 82.1531 9.32301 82.4466 10.4081 82.8187C11.5143 83.115 12.6346 83.3904 13.7634 83.6326C18.2946 84.5128 23.002 84.6802 27.6585 84.158C32.3102 83.6602 36.9452 82.6953 41.4295 81.1651L44.7977 80.0469L48.086 78.6887C50.2775 77.8231 52.4761 76.8136 54.6693 75.7916C63.4373 71.7281 72.0406 67.209 81.0696 63.2187C85.5894 61.2361 90.2254 59.3816 95.1073 58.0292C99.9628 56.6511 105.098 55.7828 110.3 55.8717C112.905 55.881 115.5 56.2428 118.044 56.7524C120.585 57.308 123.054 58.1241 125.418 59.1256C130.146 61.1591 134.346 64.0336 138.112 67.2501L140.806 69.5185L142.121 70.622L143.49 71.6575C145.287 73.0655 147.198 74.3283 149.127 75.5613C152.995 78.0002 157.131 80.0281 161.429 81.6308C165.723 83.2426 170.2 84.4056 174.752 85.1733C179.306 85.9472 183.959 86.2563 188.617 86.1116C193.274 85.9821 197.935 85.4357 202.559 84.5868C207.175 83.6671 211.728 82.4039 216.212 80.8737C220.673 79.2719 225.071 77.4677 229.357 75.3854C233.617 73.262 237.832 70.9954 241.873 68.4324C250.007 63.3886 257.693 57.588 264.928 51.2696C268.58 48.1181 271.997 44.83 275.566 41.4691C279.138 38.1146 282.826 34.888 286.669 31.8619C294.315 25.7526 302.434 20.2112 311.005 15.439C315.279 13.0432 319.666 10.8213 324.188 8.89714C326.424 7.88634 328.739 7.04179 331.029 6.15617C333.361 5.386 335.655 4.49134 338.036 3.85538C342.736 2.41795 347.573 1.38869 352.452 0.741763C357.324 0.0454787 362.277 -0.107183 367.188 0.195344C368.414 0.306942 369.65 0.317794 370.864 0.508607L374.509 1.03517C375.723 1.22598 376.909 1.54742 378.112 1.80216L379.908 2.20995L381.661 2.74769C386.394 4.04524 390.877 6.07986 395.12 8.44705L398.253 10.3122C399.271 10.9726 400.243 11.7044 401.236 12.3974C403.27 13.7335 405.03 15.3943 406.913 16.9136C407.841 17.6865 408.658 18.5738 409.535 19.4057C410.382 20.2576 411.299 21.0575 412.092 21.9622L414.486 24.6555C415.299 25.5518 416.083 26.4531 416.816 27.3764C428.908 41.9834 439.713 57.5649 451.839 71.8237C457.952 78.8725 464.561 85.5606 472.299 90.5122C476.173 92.9636 480.305 94.9636 484.681 96.2509C489.052 97.541 493.644 98.0989 498.264 97.9554C502.881 97.8058 507.52 97.0466 512.05 95.7486C516.553 94.4402 521.076 92.7307 525.529 90.9322C534.424 87.2886 543.062 82.9767 551.547 78.3233C560.051 73.6984 568.423 68.7301 577.162 64.2418C585.877 59.7861 595.147 55.8038 605.102 54.2767C610.051 53.5104 615.129 53.4003 620.083 54.0177C625.041 54.6261 629.854 55.9488 634.428 57.7515C639.006 59.5603 643.341 61.9102 647.368 64.6295C651.395 67.3487 655.138 70.4047 658.712 73.5848C665.862 79.9296 672.383 86.7886 679.877 92.3118C683.62 95.064 687.601 97.4621 691.849 99.2711C696.094 101.089 700.608 102.303 705.231 102.899C709.858 103.502 714.586 103.504 719.296 103.107C724.016 102.751 728.696 101.766 733.392 100.783C738.039 99.6497 742.683 98.4367 747.146 96.7674C749.414 96.0097 751.579 95.0294 753.78 94.1151L756.993 92.5817C758.072 92.0822 759.084 91.4629 760.132 90.9098C768.411 86.3298 775.751 80.0776 780.908 72.3752C781.562 71.4204 782.144 70.4225 782.74 69.4406C783.283 68.4225 783.874 67.4281 784.343 66.3821C785.364 64.3214 786.188 62.1749 786.892 59.9984C787.589 57.8247 788.127 55.6007 788.475 53.3619C788.646 52.2438 788.792 51.1215 788.862 50.0019C788.947 48.9136 788.982 47.7127 788.931 46.7716L788.925 46.6701C788.861 45.4676 789.813 44.4222 791.044 44.3316C792.275 44.2409 793.321 45.1481 793.386 46.3506L793.387 46.3722C793.445 47.7922 793.377 48.9701 793.277 50.2356C793.178 51.4859 793.003 52.7172 792.802 53.9443C792.385 56.3978 791.771 58.8177 790.985 61.1776C790.199 63.5375 789.275 65.8603 788.136 68.0904C787.61 69.2197 786.963 70.2975 786.362 71.3927C785.7 72.4544 785.06 73.5294 784.338 74.5577C778.659 82.8466 770.696 89.4108 761.987 94.2195C760.881 94.7976 759.811 95.4417 758.68 95.9634L755.303 97.5598C753.009 98.5066 750.735 99.5187 748.384 100.297C743.729 102.019 738.943 103.256 734.148 104.401C729.339 105.388 724.479 106.398 719.521 106.753C714.576 107.155 709.573 107.136 704.631 106.476C699.692 105.823 694.842 104.501 690.304 102.535C685.756 100.58 681.542 98.0148 677.647 95.1206C669.848 89.3134 663.311 82.3648 656.311 76.1188C652.814 72.9944 649.22 70.0006 645.349 67.4143C641.485 64.8253 637.374 62.6237 633.039 60.9333C628.703 59.243 624.165 58.025 619.548 57.4782C614.924 56.9189 610.218 57.04 605.584 57.7748C596.278 59.2459 587.422 63.1397 578.911 67.5895C570.36 72.0864 562.044 77.1341 553.504 81.8708C544.986 86.6423 536.226 91.1173 527.141 94.924C522.585 96.8037 518.002 98.5318 513.165 99.9538C508.35 101.337 503.332 102.177 498.272 102.346C493.216 102.506 488.107 101.903 483.274 100.478C478.432 99.0713 473.882 96.8802 469.757 94.181C461.491 88.7665 454.741 81.7467 448.564 74.4955C445.486 70.8504 442.54 67.1194 439.656 63.3544C436.797 59.5783 433.998 55.762 431.204 51.9583C425.629 44.3452 420.063 36.7508 414.214 29.3736C413.499 28.4357 412.748 27.5422 411.987 26.6758L409.72 24.0314C408.973 23.1441 408.105 22.3679 407.3 21.5271C406.472 20.719 405.692 19.8456 404.816 19.0874C403.037 17.5975 401.366 15.9652 399.443 14.6558C398.502 13.9774 397.582 13.2602 396.621 12.6055L393.645 10.7691C385.645 5.98954 376.412 3.1536 366.941 2.5984C362.209 2.28571 357.43 2.41567 352.695 3.07532C347.954 3.68561 343.249 4.66572 338.65 6.05257C336.331 6.67611 334.067 7.51381 331.794 8.29588C329.56 9.18714 327.304 10.0283 325.115 11.0413C320.699 12.9642 316.41 15.1814 312.227 17.5753C303.864 22.3692 295.982 27.9798 288.595 34.1409C284.896 37.2166 281.371 40.4844 277.973 43.8531C274.581 47.2344 271.103 50.7559 267.502 54.0416C260.319 60.6784 252.614 66.828 244.368 72.2532C236.143 77.7069 227.315 82.3814 217.971 85.8846C213.271 87.5736 208.472 88.9943 203.567 90.0602C198.656 91.0769 193.655 91.6875 188.635 91.8616C178.591 92.271 168.468 90.6243 159.13 87.1147C154.463 85.3662 149.981 83.1537 145.795 80.5099C143.71 79.1808 141.654 77.81 139.717 76.2913L138.244 75.1744L136.832 73.9866L134.088 71.673C130.652 68.7447 126.927 66.1927 122.885 64.3839C120.859 63.4962 118.765 62.7863 116.606 62.2821C114.446 61.83 112.25 61.4897 110.003 61.46C105.531 61.3402 100.962 62.0321 96.462 63.2578C91.9537 64.4648 87.4972 66.1312 83.0728 67.9617C74.2255 71.6443 65.4927 76.0041 56.5279 79.9298C47.5775 83.8715 37.9077 87.2769 27.8863 87.9358C22.8929 88.3505 17.8235 88.0345 12.9347 86.9445C11.7192 86.6432 10.5086 86.3176 9.31316 85.9558C8.14145 85.5246 6.93683 85.1593 5.80399 84.6225C4.65495 84.1371 3.50918 83.6058 2.49822 82.8537C1.51797 82.0662 0.597061 81.1495 0.109872 79.8171C0.0572866 79.6767 0.131747 79.5114 0.285729 79.4601C0.330959 79.4408 0.375097 79.4366 0.424601 79.4451L0.466554 79.4715Z" fill="#333333"/>
</svg>
