<svg width="188" height="99" viewBox="0 0 188 99" fill="none" xmlns="http://www.w3.org/2000/svg">
<g clip-path="url(#clip0_63_105)">
<path d="M187.7 44.7C188.1 42.7 187.6 40.6 186.2 38.7C185.4 37.6 183.8 36 181.2 33.9L179.8 29.8C178.8 27.2 175.8 25.3 170.9 24.1C170.2 23.9 169.7 23.4 169.1 22.6L167.8 20.6C165.6 17.5 161.6 16.1 155.9 16.5L153.8 14C150.8 11.2 146.6 10.2 141.4 11.2L137.8 8.9C135.6 7.5 131.7 7.1 126.3 8.1C125.1 6.8 123.3 5.9 121.1 5.4C119.2 4.9 117.2 4.9 115.3 5.3C113.9 5.7 112.2 6.3 110.2 7.3L105.2 9.9C103.3 10.7 101.6 11.2 99.7995 11.2C98.2995 11.2 97.2995 10.8 96.7995 10.2C97.4995 9.2 97.9995 8 98.4995 6.7C98.8995 4.4 98.3995 2.5 96.7995 1C95.8995 0.3 94.7995 0 93.5995 0C92.7995 0.1 92.0995 0.4 91.2995 1.1C90.6995 1.7 90.1995 2.4 89.8995 3.1C89.0995 5.3 89.6995 7.7 91.3995 10.3C91.1995 10.6 90.7995 10.8 90.2995 11L89.1995 11.4C86.8995 11.3 84.1995 10.6 81.1995 9L77.4995 7.1C76.0995 6.4 74.8995 5.9 73.5995 5.5C71.5995 5 69.4995 5 67.2995 5.5C65.3995 6 63.5995 6.9 61.7995 8.2L56.5995 7.5C54.7995 7.3 53.0995 7.7 51.2995 8.6L46.6995 11.5L42.5995 11.2C40.3995 11.2 38.3995 11.7 36.4995 12.8C34.5995 13.8 33.1995 15.2 31.9995 16.9L27.9995 17C25.8995 16.9 23.7995 17.7 21.7995 19.3C20.0995 20.6 18.7995 22.3 17.7995 24.3L11.4995 26.5C10.0995 27.3 8.99952 28.5 8.19952 30.1L6.49952 34.5L2.39952 38.1C1.09952 39.3 0.29952 40.8 -0.000479534 42.6C-0.20048 44.4 -0.000479519 46 0.79952 47.6C1.49952 48.4 1.59952 49.5 0.99952 50.6L-0.10048 53.6C-0.50048 55.7 -0.10048 57.7 1.39952 59.7C2.29952 61 3.99952 62.5 6.39952 64.3C7.19952 66.7 7.79952 68.4 8.29952 69.3C9.49952 71.5 12.2995 73.1 16.3995 74.1C17.2995 74.2 18.0995 74.8 18.5995 75.7L19.9995 77.9C22.2995 80.9 26.2995 82.2 31.8995 81.7C32.7995 83 33.7995 84.1 34.8995 85C37.8995 87.2 41.7995 87.8 46.5995 87L48.3995 88.3C49.8995 89.9 51.9995 90.8 54.6995 91C56.8995 91.2 59.2995 91.1 61.8995 90.4L65.0995 92.4C67.1995 93.4 69.2995 93.8 71.3995 93.5C73.0995 93.3 74.8995 92.7 76.9995 91.7L82.4995 89C84.5995 88 86.5995 87.4 88.2995 87.2L90.1995 87.4C90.8995 87.5 91.2995 87.8 91.3995 88.2C89.6995 90.5 89.1995 92.7 89.8995 95C90.0995 95.8 90.5995 96.6 91.1995 97.2C91.8995 97.9 92.6995 98.3 93.5995 98.5C95.3995 98.7 96.6995 98.1 97.5995 96.6C98.4995 95.5 98.6995 94 98.4995 92.4C98.2995 90.9 97.6995 89.6 96.6995 88.3C97.0995 87.7 97.7995 87.4 98.5995 87.4C101 87.3 103.9 88.1 107.2 89.7L111.2 91.8C112.7 92.5 114.2 93 115.4 93.2C119.7 94 123.2 93.1 126 90.5L131.3 91C133.2 91.2 134.9 90.8 136.7 89.9C137.8 89.4 139.2 88.4 141.2 87L145.7 87.3C147.8 87.3 149.8 86.8 151.6 85.7C153.5 84.7 154.9 83.3 155.9 81.6H159L161.9 81.3C163.7 81.1 165.3 80.2 166.9 78.7C167.8 77.7 169 76.3 170.1 74.3L174.8 72.7C176.7 72.2 178.1 71 179.3 69.1C180.1 67.9 180.7 66.2 181.3 63.8L183.9 61.6C185 60.8 185.7 60 186.2 59.3C188.2 57.1 188.3 53.7 186.3 49.1L187.7 44.7ZM92.6995 4.1C92.9995 3.4 93.4995 3.1 93.8995 3C94.4995 2.9 95.0995 3.3 95.6995 4.1C96.2995 5.5 95.9995 7 94.8995 8.7C94.5995 9.1 94.0995 9.2 93.7995 9C92.3995 7.2 92.0995 5.5 92.6995 4.1ZM95.8995 94.9C95.6995 95.3 95.4995 95.6 94.9995 95.8L93.5995 95.7C92.4995 94.5 92.3995 93 93.1995 91C93.5995 90.3 94.0995 89.9 94.3995 89.8C95.0995 90.1 95.5995 90.6 95.7995 91.4L95.9995 93.6L95.8995 94.9ZM185.2 55.5C184.6 57.6 183.5 59.4 181.9 60.9L179.8 62.5C179.1 64.9 177.8 67 175.8 69C173.7 71 171.4 72.3 168.9 72.8C167.4 75 165.4 76.7 163.1 77.9C160.7 79.2 158 79.8 155.3 79.7C151.7 83.4 147.7 85.2 143.4 85L140.9 84.9C139.1 86.6 136.8 87.7 134 88.2L125.7 88C122.3 90.6 118.4 91.5 114.4 90.7C113.3 90.3 111.9 89.6 110.2 88.6L106 86.3C102.7 84.6 99.4995 84.3 96.7995 85.2L94.1995 86.2C92.9995 85.4 91.3995 84.9 89.8995 84.7C88.0995 84.5 86.5995 84.6 85.2995 85.2C83.9995 85.7 82.2995 86.5 80.2995 87.7C77.8995 89.1 76.1995 90 75.2995 90.4C73.1995 91 71.0995 91.1 68.8995 90.6C66.6995 90.2 64.7995 89.3 63.1995 88C60.3995 88.5 57.6995 88.6 55.1995 88.1C52.2995 87.6 49.8995 86.5 47.9995 84.8C42.6995 85.8 37.9995 84.1 33.5995 79.7C28.1995 80 23.5995 77.6 19.5995 72.6C17.0995 72.2 14.8995 70.9 12.7995 68.8C10.8995 66.9 9.59952 64.8 8.79952 62.3C6.79952 61.1 5.39952 59.6 4.29952 57.7C3.19952 55.7 2.89952 53.6 3.19952 51.4L3.99952 49.1C3.09952 47.4 2.89952 45.6 3.19952 43.7C3.59952 41.9 4.39952 40.3 5.59952 38.7C6.99952 37.4 7.99952 36.5 8.79952 36.1C9.59952 33.7 10.8995 31.6 12.7995 29.7C14.8995 27.6 17.0995 26.4 19.5995 25.9C21.3995 23.6 23.2995 21.9 25.4995 20.6C27.9995 19.2 30.6995 18.6 33.3995 18.7C35.3995 16.7 37.4995 15.2 39.7995 14.3C42.2995 13.3 44.9995 13.1 47.6995 13.6C49.5995 11.9 51.8995 10.8 54.5995 10.3L62.5995 10.5C65.7995 8.1 69.3995 7.2 73.4995 7.6C74.6995 8 76.3995 8.7 78.2995 9.8C80.7995 11.3 82.4995 12.1 82.9995 12.4C86.8995 14.3 90.3995 14.3 93.3995 12.6L94.1995 12.2C95.5995 13 97.2995 13.6 99.1995 13.8C101.2 14 102.8 13.7 104.4 13C105.3 12.7 106.3 12.2 107.4 11.6L110.4 9.9C112.8 8.5 114.9 7.6 116.7 7.5C120.1 7.9 123.1 8.9 125.7 10.9L133.7 10.7C136.6 11.2 138.9 12.4 140.9 14C143.5 13.5 146.2 13.7 148.8 14.7C151.1 15.6 153.2 17 155.1 19C157.9 18.8 160.5 19.4 163 20.7C165.2 22 167.1 23.7 168.7 25.9C171.2 26.4 173.7 27.7 175.7 29.7C177.7 31.6 179 33.8 179.7 36.2C181.6 37.3 183.1 38.7 184.1 40.5C185.1 42.3 185.5 44.1 185.5 46.1C185.4 47.5 185.1 48.7 184.7 49.4C185.6 51.3 185.8 53.3 185.2 55.5Z" fill="white"/>
<path fill-rule="evenodd" clip-rule="evenodd" d="M20.9004 43.7V36.1H15.4004V56H20.9004V48.3H26.3004V56H31.7004V36.1H26.3004V43.7H20.9004Z" fill="white"/>
<path fill-rule="evenodd" clip-rule="evenodd" d="M37.3996 41.2C38.1996 41.2 38.9996 41 39.4996 40.5C40.0996 40 40.2996 39.4 40.2996 38.6C40.2996 37.9 40.0996 37.3 39.4996 36.8C38.9996 36.3 38.1996 36 37.3996 36C36.5996 36 35.9996 36.3 35.3996 36.8C34.8996 37.3 34.5996 37.9 34.5996 38.6C34.5996 39.3 34.8996 39.9 35.3996 40.5C35.8996 41 36.5996 41.2 37.3996 41.2Z" fill="white"/>
<path fill-rule="evenodd" clip-rule="evenodd" d="M44.4 36.1C43.6 36.1 42.9 36.4 42.4 36.9C41.8 37.4 41.5 38 41.5 38.7C41.5 39.4 41.8 40 42.4 40.6C42.9 41.1 43.6 41.3 44.4 41.3C45.2 41.3 45.8 41.1 46.4 40.6C46.9 40.1 47.2 39.5 47.2 38.7C47.2 38 46.9 37.4 46.4 36.9C45.8 36.4 45.2 36.1 44.4 36.1Z" fill="white"/>
<path fill-rule="evenodd" clip-rule="evenodd" d="M114.301 45.8H109.201V50.1H114.301V45.8Z" fill="white"/>
<path fill-rule="evenodd" clip-rule="evenodd" d="M42.3 42.5L42.1 43.3C41.5 42.8 40.8 42.5 40.1 42.4L39 42.3C37.1 42.3 35.5 43 34.3 44.3C33.1 45.6 32.5 47.2 32.5 49.2C32.5 51.1 33 52.7 34.1 54C35.2 55.4 36.8 56.2 39 56.2L40.2 56.1C41.1 56 41.9 55.6 42.6 55.1L42.8 55.9H47.2V42.5H42.3ZM40.1 46.7C40.8 46.7 41.4 46.9 41.8 47.4C42.2 47.9 42.3 48.5 42.3 49.4C42.3 50.3 42.1 51 41.7 51.4C41.3 51.9 40.7 52.1 40.1 52.1C39.4 52.1 38.9 51.9 38.5 51.4C38.1 50.9 37.9 50.3 37.9 49.4C37.9 48.6 38.1 47.9 38.6 47.4C39 46.9 39.5 46.7 40.1 46.7Z" fill="white"/>
<path fill-rule="evenodd" clip-rule="evenodd" d="M71.0996 42.5L69.9996 42.4C68.3996 42.4 67.0996 42.9 65.8996 43.9C64.2996 45.2 63.5996 47.1 63.5996 49.5C63.5996 52 64.3996 53.8 65.8996 55.1C66.9996 56 68.2996 56.5 69.7996 56.5L71.1996 56.4C72.1996 56.2 72.7996 55.9 73.1996 55.5V56.2C73.1996 57.5 72.4996 58.2 71.1996 58.5L69.7996 58.6L67.0996 58.3L65.7996 57.9V61.8C67.0996 62.3 68.7996 62.6 70.9996 62.6H71.1996C73.0996 62.6 74.6996 62.1 75.9996 61.2C77.5996 60.1 78.3996 58.5 78.3996 56.2V42.5H73.5996L73.1996 43.4C72.4996 42.9 71.7996 42.6 71.0996 42.5ZM71.0996 52.1C70.3996 52.1 69.8996 51.9 69.4996 51.4C69.0996 50.9 68.7996 50.2 68.7996 49.4C68.7996 48.6 68.9996 47.9 69.4996 47.4C69.9996 47 70.4996 46.8 71.0996 46.8C72.5996 46.8 73.2996 47.6 73.2996 49.4C73.2996 50.3 73.0996 51 72.6996 51.4C72.2996 51.9 71.7996 52.1 71.0996 52.1Z" fill="white"/>
<path fill-rule="evenodd" clip-rule="evenodd" d="M86 42.3C84 42.3 82.4 42.8 81.2 44C79.8 45.3 79 47 79 49.3C79 51.2 79.7 52.6 80.9 53.9C82.2 55.1 83.8 55.8 86 56.1L87.5 56.2C89.4 56.2 91 55.8 92.4 55.2V51.6C90.8 52.3 89.5 52.6 88.3 52.6C87.3 52.6 86.5 52.5 86 52.1L85.5 51.7L93.4 49.2C93.3 47.3 92.7 45.8 91.7 44.6C90.4 43.1 88.5 42.3 86 42.3ZM84.1 48.5C83.9 47.8 84 47.2 84.4 46.6C84.8 46.2 85.4 45.9 86 45.9C87 45.9 87.6 46.3 88 47.2L84.1 48.5Z" fill="white"/>
<path fill-rule="evenodd" clip-rule="evenodd" d="M105.9 43.5C105 42.7 103.9 42.3 102.6 42.3C100.9 42.3 99.6 42.7 98.6 43.4L98.2 42.4H94V55.8H99.1V47.6C99.1 46.6 99.6 46.2 100.8 46.2C101.3 46.2 101.8 46.3 102.1 46.7C102.5 47.1 102.7 47.6 102.7 48.2V55.8H107.5V47C107.5 45.6 106.9 44.4 105.9 43.5Z" fill="white"/>
<path fill-rule="evenodd" clip-rule="evenodd" d="M149.001 46.4H153.701L148.701 56H160.401V52.2H156.201L161.201 42.5H149.001V46.4Z" fill="white"/>
<path fill-rule="evenodd" clip-rule="evenodd" d="M171.2 43C170.1 42.5 168.5 42.3 166.3 42.3C164.8 42.3 163.6 42.7 162.5 43.3C161.2 44.1 160.6 45.3 160.6 46.8C160.6 47.9 161 48.8 161.6 49.4C162.1 49.9 162.9 50.4 164 50.7L165.8 51.2C166.5 51.4 166.9 51.7 166.9 52C166.9 52.5 166.3 52.7 165 52.7C163.7 52.7 162.4 52.4 161.1 51.7V55.7L165.6 56.3C167.3 56.3 168.8 56 170 55.3C171.6 54.4 172.4 53 172.4 51.1C172.4 49.2 171.1 47.9 168.4 47.3L166.5 46.9C166 46.8 165.7 46.6 165.7 46.4C165.7 45.9 166.4 45.6 167.9 45.6C169 45.6 170.1 45.8 171.2 46.3V43Z" fill="white"/>
<path fill-rule="evenodd" clip-rule="evenodd" d="M133.301 45.9C133.301 43 132.501 40.6 130.901 38.8C129.401 37.1 127.301 36.2 124.701 36.1H116.201V55.9L124.701 55.8C127.601 55.4 129.701 54.4 131.201 52.6C132.601 50.9 133.301 48.7 133.301 45.9ZM121.901 40.4H123.301L124.801 40.6C125.801 41 126.601 41.7 127.101 42.8C127.501 43.6 127.701 44.7 127.701 45.8C127.701 48.7 126.701 50.5 124.801 51.2L123.101 51.4H122.001V40.4H121.901V40.4Z" fill="white"/>
<path fill-rule="evenodd" clip-rule="evenodd" d="M141.2 42.5L140.1 42.4C138.1 42.4 136.6 43.1 135.4 44.4C134.2 45.7 133.6 47.3 133.6 49.3C133.6 51.2 134.1 52.8 135.1 54.1C136.2 55.5 137.9 56.3 140.1 56.3L141.3 56.2C142.1 56.1 143 55.7 143.6 55.2L143.9 56H148.3V42.5H143.5L143.2 43.3C142.5 42.9 141.8 42.6 141.2 42.5ZM143.4 49.4C143.4 50.3 143.2 51 142.8 51.4C142.4 51.9 141.8 52.1 141.2 52.1C140.5 52.1 139.9 51.9 139.6 51.4C139.2 50.9 138.9 50.3 138.9 49.4C138.9 48.6 139.1 47.9 139.6 47.4C140 46.9 140.6 46.7 141.2 46.7C142.6 46.7 143.4 47.6 143.4 49.4Z" fill="white"/>
<path fill-rule="evenodd" clip-rule="evenodd" d="M55.6 42.5L54.5 42.4C52.6 42.4 51 43.1 49.8 44.4C48.6 45.7 48 47.3 48 49.3C48 51.2 48.5 52.8 49.5 54.1C50.7 55.5 52.3 56.3 54.5 56.3L55.7 56.2C56.6 56.1 57.4 55.7 58 55.2L58.3 56H62.8V42.5H57.9L57.7 43.3C57 42.9 56.3 42.6 55.6 42.5ZM57.9 49.4C57.9 50.3 57.7 51 57.3 51.4C56.9 51.9 56.3 52.1 55.7 52.1C55 52.1 54.5 51.9 54.1 51.4C53.7 50.9 53.4 50.3 53.4 49.4C53.4 48.6 53.6 47.9 54.1 47.4C54.5 46.9 55 46.7 55.7 46.7C56.4 46.7 57 46.9 57.3 47.4C57.7 47.9 57.9 48.6 57.9 49.4Z" fill="white"/>
<path fill-rule="evenodd" clip-rule="evenodd" d="M169.7 57.2L169.2 56.8L168.6 56.7H168.5L168 56.8L167.5 57.2L167.1 57.7L167 58.3L167.1 58.8L167.5 59.3L168 59.6L168.5 59.8H168.6L169.1 59.6L169.6 59.3L170 58.8L170.1 58.3L170 57.7L169.7 57.2ZM169 57.2L169.4 57.5L169.7 57.9L169.8 58.4L169.7 58.8L169.4 59.2L169 59.5L168.6 59.6H168.5L168.1 59.5L167.7 59.2L167.5 58.8C167.4 58.7 167.4 58.6 167.4 58.4L167.5 57.9L167.7 57.5L168.1 57.2L168.5 57.1H168.6L169 57.2Z" fill="white"/>
<path fill-rule="evenodd" clip-rule="evenodd" d="M168.6 57.5H167.9V59.1H168.3V58.4H168.5L168.8 59.1H169.3L168.9 58.4L169.1 58.2L169.2 57.9L169 57.5H168.6ZM168.3 57.8H168.5H168.7L168.8 58L168.7 58.1L168.5 58.2H168.3V57.8Z" fill="white"/>
</g>
<defs>
<clipPath id="clip0_63_105">
<rect width="187.8" height="98.5" fill="white"/>
</clipPath>
</defs>
</svg>
