<svg width="559" height="39" viewBox="0 0 559 39" fill="none" xmlns="http://www.w3.org/2000/svg">
<path d="M19.5039 13.1445V17.7148H4.66016L4.66016 13.1445H19.5039ZM6.39844 1.5625L6.39844 30H0.539063L0.539063 1.5625H6.39844ZM23.6836 1.5625L23.6836 30H17.8438L17.8438 1.5625H23.6836ZM43.8359 25.2344V15.8203C43.8359 15.1432 43.7253 14.5638 43.5039 14.082C43.2826 13.5872 42.9375 13.2031 42.4688 12.9297C42.013 12.6562 41.4206 12.5195 40.6914 12.5195C40.0664 12.5195 39.526 12.6302 39.0703 12.8516C38.6146 13.0599 38.263 13.3659 38.0156 13.7695C37.7682 14.1602 37.6445 14.6224 37.6445 15.1562H32.0195C32.0195 14.2578 32.2279 13.4049 32.6445 12.5977C33.0612 11.7904 33.6667 11.0807 34.4609 10.4687C35.2552 9.84375 36.1992 9.35547 37.293 9.00391C38.3997 8.65234 39.6367 8.47656 41.0039 8.47656C42.6445 8.47656 44.1029 8.75 45.3789 9.29687C46.6549 9.84375 47.6576 10.6641 48.3867 11.7578C49.1289 12.8516 49.5 14.2187 49.5 15.8594V24.9023C49.5 26.0612 49.5716 27.0117 49.7148 27.7539C49.8581 28.4831 50.0664 29.1211 50.3398 29.668V30H44.6562C44.3828 29.4271 44.1745 28.7109 44.0312 27.8516C43.901 26.9792 43.8359 26.1068 43.8359 25.2344ZM44.5781 17.1289L44.6172 20.3125H41.4727C40.7305 20.3125 40.0859 20.3971 39.5391 20.5664C38.9922 20.7357 38.543 20.9766 38.1914 21.2891C37.8398 21.5885 37.5794 21.9401 37.4102 22.3437C37.2539 22.7474 37.1758 23.1901 37.1758 23.6719C37.1758 24.1536 37.2865 24.5898 37.5078 24.9805C37.7292 25.3581 38.0482 25.6576 38.4648 25.8789C38.8815 26.0872 39.3698 26.1914 39.9297 26.1914C40.776 26.1914 41.5117 26.0221 42.1367 25.6836C42.7617 25.3451 43.2435 24.9284 43.582 24.4336C43.9336 23.9388 44.1159 23.4701 44.1289 23.0273L45.6133 25.4102C45.4049 25.944 45.1185 26.4974 44.7539 27.0703C44.4023 27.6432 43.9531 28.1836 43.4062 28.6914C42.8594 29.1862 42.2018 29.5964 41.4336 29.9219C40.6654 30.2344 39.7539 30.3906 38.6992 30.3906C37.3581 30.3906 36.1406 30.1237 35.0469 29.5898C33.9661 29.043 33.1068 28.2943 32.4688 27.3438C31.8438 26.3802 31.5312 25.2865 31.5312 24.0625C31.5312 22.9557 31.7396 21.9727 32.1562 21.1133C32.5729 20.2539 33.1849 19.5312 33.9922 18.9453C34.8125 18.3464 35.8346 17.8971 37.0586 17.5977C38.2826 17.2852 39.7018 17.1289 41.3164 17.1289H44.5781ZM33.5039 3.30078C33.5039 2.6237 33.7578 2.05078 34.2656 1.58203C34.7865 1.10026 35.4245 0.859375 36.1797 0.859375C36.9609 0.859375 37.6055 1.10026 38.1133 1.58203C38.6211 2.05078 38.875 2.6237 38.875 3.30078C38.875 3.97786 38.6211 4.55078 38.1133 5.01953C37.6055 5.48828 36.9609 5.72266 36.1797 5.72266C35.4245 5.72266 34.7865 5.48828 34.2656 5.01953C33.7578 4.55078 33.5039 3.97786 33.5039 3.30078ZM43.0938 3.32031C43.0938 2.63021 43.3477 2.05078 43.8555 1.58203C44.3633 1.11328 45.0013 0.878906 45.7695 0.878906C46.5378 0.878906 47.1758 1.11328 47.6836 1.58203C48.2044 2.05078 48.4648 2.63021 48.4648 3.32031C48.4648 3.9974 48.2044 4.57031 47.6836 5.03906C47.1758 5.49479 46.5378 5.72266 45.7695 5.72266C45.0013 5.72266 44.3633 5.49479 43.8555 5.03906C43.3477 4.57031 43.0938 3.9974 43.0938 3.32031ZM69.2422 25.2344V15.8203C69.2422 15.1432 69.1315 14.5638 68.9102 14.082C68.6888 13.5872 68.3438 13.2031 67.875 12.9297C67.4193 12.6562 66.8268 12.5195 66.0977 12.5195C65.4727 12.5195 64.9323 12.6302 64.4766 12.8516C64.0208 13.0599 63.6693 13.3659 63.4219 13.7695C63.1745 14.1602 63.0508 14.6224 63.0508 15.1562H57.4258C57.4258 14.2578 57.6341 13.4049 58.0508 12.5977C58.4674 11.7904 59.0729 11.0807 59.8672 10.4687C60.6615 9.84375 61.6055 9.35547 62.6992 9.00391C63.806 8.65234 65.043 8.47656 66.4102 8.47656C68.0508 8.47656 69.5091 8.75 70.7852 9.29687C72.0612 9.84375 73.0638 10.6641 73.793 11.7578C74.5352 12.8516 74.9062 14.2187 74.9062 15.8594V24.9023C74.9062 26.0612 74.9779 27.0117 75.1211 27.7539C75.2643 28.4831 75.4727 29.1211 75.7461 29.668V30H70.0625C69.7891 29.4271 69.5807 28.7109 69.4375 27.8516C69.3073 26.9792 69.2422 26.1068 69.2422 25.2344ZM69.9844 17.1289L70.0234 20.3125H66.8789C66.1367 20.3125 65.4922 20.3971 64.9453 20.5664C64.3984 20.7357 63.9492 20.9766 63.5977 21.2891C63.2461 21.5885 62.9857 21.9401 62.8164 22.3437C62.6602 22.7474 62.582 23.1901 62.582 23.6719C62.582 24.1536 62.6927 24.5898 62.9141 24.9805C63.1354 25.3581 63.4544 25.6576 63.8711 25.8789C64.2878 26.0872 64.776 26.1914 65.3359 26.1914C66.1823 26.1914 66.918 26.0221 67.543 25.6836C68.168 25.3451 68.6497 24.9284 68.9883 24.4336C69.3398 23.9388 69.5221 23.4701 69.5352 23.0273L71.0195 25.4102C70.8112 25.944 70.5247 26.4974 70.1602 27.0703C69.8086 27.6432 69.3594 28.1836 68.8125 28.6914C68.2656 29.1862 67.6081 29.5964 66.8398 29.9219C66.0716 30.2344 65.1602 30.3906 64.1055 30.3906C62.7643 30.3906 61.5469 30.1237 60.4531 29.5898C59.3724 29.043 58.513 28.2943 57.875 27.3437C57.25 26.3802 56.9375 25.2865 56.9375 24.0625C56.9375 22.9557 57.1458 21.9727 57.5625 21.1133C57.9792 20.2539 58.5911 19.5312 59.3984 18.9453C60.2188 18.3464 61.2409 17.8971 62.4648 17.5977C63.6888 17.2852 65.1081 17.1289 66.7227 17.1289H69.9844ZM96.6211 8.86719L101.719 8.86719V29.2969C101.719 31.224 101.289 32.8581 100.43 34.1992C99.5833 35.5534 98.3984 36.5755 96.875 37.2656C95.3516 37.9687 93.5807 38.3203 91.5625 38.3203C90.6771 38.3203 89.7396 38.2031 88.75 37.9687C87.7734 37.7344 86.8359 37.3698 85.9375 36.875C85.0521 36.3802 84.3099 35.7552 83.7109 35L86.1914 31.6797C86.8424 32.4349 87.5977 33.0208 88.457 33.4375C89.3164 33.8672 90.2669 34.082 91.3086 34.082C92.3242 34.082 93.1836 33.8932 93.8867 33.5156C94.5898 33.151 95.1302 32.6107 95.5078 31.8945C95.8854 31.1914 96.0742 30.3385 96.0742 29.3359V13.75L96.6211 8.86719ZM82.4023 19.6875V19.2773C82.4023 17.6628 82.5977 16.1979 82.9883 14.8828C83.3919 13.5547 83.9583 12.4154 84.6875 11.4648C85.4297 10.5143 86.3281 9.77865 87.3828 9.25781C88.4375 8.73698 89.6289 8.47656 90.957 8.47656C92.3633 8.47656 93.5417 8.73698 94.4922 9.25781C95.4427 9.77865 96.224 10.5208 96.8359 11.4844C97.4479 12.4349 97.9232 13.5612 98.2617 14.8633C98.6133 16.1523 98.8867 17.5651 99.082 19.1016V20C98.8867 21.4714 98.5938 22.8385 98.2031 24.1016C97.8125 25.3646 97.2982 26.4714 96.6602 27.4219C96.0221 28.3594 95.2279 29.0885 94.2773 29.6094C93.3398 30.1302 92.2201 30.3906 90.918 30.3906C89.6159 30.3906 88.4375 30.1237 87.3828 29.5898C86.3411 29.056 85.4492 28.3073 84.707 27.3437C83.9648 26.3802 83.3919 25.2474 82.9883 23.9453C82.5977 22.6432 82.4023 21.224 82.4023 19.6875ZM88.0273 19.2773V19.6875C88.0273 20.5599 88.112 21.3737 88.2812 22.1289C88.4505 22.8841 88.7109 23.5547 89.0625 24.1406C89.4271 24.7135 89.8763 25.1628 90.4102 25.4883C90.957 25.8008 91.6016 25.957 92.3438 25.957C93.3724 25.957 94.2122 25.7422 94.8633 25.3125C95.5143 24.8698 96.0026 24.2643 96.3281 23.4961C96.6536 22.7279 96.8424 21.8424 96.8945 20.8398V18.2812C96.8685 17.4609 96.7578 16.7253 96.5625 16.0742C96.3672 15.4102 96.0938 14.8437 95.7422 14.375C95.3906 13.9062 94.9349 13.5417 94.375 13.2812C93.8151 13.0208 93.151 12.8906 92.3828 12.8906C91.6406 12.8906 90.9961 13.0599 90.4492 13.3984C89.9154 13.724 89.4661 14.1732 89.1016 14.7461C88.75 15.319 88.4831 15.9961 88.3008 16.7773C88.1185 17.5456 88.0273 18.3789 88.0273 19.2773ZM119.82 30.3906C118.18 30.3906 116.708 30.1302 115.406 29.6094C114.104 29.0755 112.997 28.3398 112.086 27.4023C111.188 26.4648 110.497 25.3776 110.016 24.1406C109.534 22.8906 109.293 21.5625 109.293 20.1562V19.375C109.293 17.7734 109.521 16.3086 109.977 14.9805C110.432 13.6523 111.083 12.5 111.93 11.5234C112.789 10.5469 113.831 9.79818 115.055 9.27734C116.279 8.74349 117.659 8.47656 119.195 8.47656C120.693 8.47656 122.021 8.72396 123.18 9.21875C124.339 9.71354 125.309 10.4167 126.09 11.3281C126.884 12.2396 127.483 13.3333 127.887 14.6094C128.29 15.8724 128.492 17.2786 128.492 18.8281V21.1719H111.695V17.4219H122.965V16.9922C122.965 16.2109 122.822 15.5143 122.535 14.9023C122.262 14.2773 121.845 13.7826 121.285 13.418C120.725 13.0534 120.009 12.8711 119.137 12.8711C118.395 12.8711 117.757 13.0339 117.223 13.3594C116.689 13.6849 116.253 14.1406 115.914 14.7266C115.589 15.3125 115.341 16.0026 115.172 16.7969C115.016 17.5781 114.938 18.4375 114.938 19.375V20.1562C114.938 21.0026 115.055 21.7839 115.289 22.5C115.536 23.2161 115.882 23.8346 116.324 24.3555C116.78 24.8763 117.327 25.2799 117.965 25.5664C118.616 25.8529 119.352 25.9961 120.172 25.9961C121.188 25.9961 122.132 25.8008 123.004 25.4102C123.889 25.0065 124.651 24.401 125.289 23.5937L128.023 26.5625C127.581 27.2005 126.975 27.8125 126.207 28.3984C125.452 28.9844 124.54 29.4661 123.473 29.8437C122.405 30.2083 121.188 30.3906 119.82 30.3906ZM141.203 13.3789V30H135.578V8.86719H140.852L141.203 13.3789ZM140.383 18.6914H138.859C138.859 17.1289 139.061 15.7227 139.465 14.4727C139.868 13.2096 140.435 12.1354 141.164 11.25C141.893 10.3516 142.759 9.66797 143.762 9.19922C144.777 8.71745 145.91 8.47656 147.16 8.47656C148.15 8.47656 149.055 8.61979 149.875 8.90625C150.695 9.19271 151.398 9.64844 151.984 10.2734C152.583 10.8984 153.039 11.7253 153.352 12.7539C153.677 13.7826 153.84 15.0391 153.84 16.5234V30H148.176V16.5039C148.176 15.5664 148.046 14.8372 147.785 14.3164C147.525 13.7956 147.141 13.431 146.633 13.2227C146.138 13.0013 145.526 12.8906 144.797 12.8906C144.042 12.8906 143.384 13.0404 142.824 13.3398C142.277 13.6393 141.822 14.056 141.457 14.5898C141.105 15.1107 140.839 15.7227 140.656 16.4258C140.474 17.1289 140.383 17.8841 140.383 18.6914ZM173.211 15.5859V20H162.176V15.5859H173.211ZM190.98 30H184.789L184.828 25.4297H190.98C192.517 25.4297 193.812 25.0846 194.867 24.3945C195.922 23.6914 196.716 22.6693 197.25 21.3281C197.797 19.987 198.07 18.3659 198.07 16.4648V15.0781C198.07 13.6198 197.914 12.3372 197.602 11.2305C197.302 10.1237 196.853 9.19271 196.254 8.4375C195.655 7.68229 194.919 7.11589 194.047 6.73828C193.174 6.34766 192.172 6.15234 191.039 6.15234L184.672 6.15234V1.5625L191.039 1.5625C192.94 1.5625 194.678 1.88802 196.254 2.53906C197.842 3.17708 199.216 4.09505 200.375 5.29297C201.534 6.49089 202.426 7.92318 203.051 9.58984C203.689 11.2435 204.008 13.0859 204.008 15.1172V16.4648C204.008 18.4831 203.689 20.3255 203.051 21.9922C202.426 23.6589 201.534 25.0911 200.375 26.2891C199.229 27.474 197.855 28.3919 196.254 29.043C194.665 29.681 192.908 30 190.98 30ZM188.109 1.5625V30H182.25V1.5625L188.109 1.5625ZM223.32 25.2344V15.8203C223.32 15.1432 223.21 14.5638 222.988 14.082C222.767 13.5872 222.422 13.2031 221.953 12.9297C221.497 12.6562 220.905 12.5195 220.176 12.5195C219.551 12.5195 219.01 12.6302 218.555 12.8516C218.099 13.0599 217.747 13.3659 217.5 13.7695C217.253 14.1602 217.129 14.6224 217.129 15.1562H211.504C211.504 14.2578 211.712 13.4049 212.129 12.5977C212.546 11.7904 213.151 11.0807 213.945 10.4687C214.74 9.84375 215.684 9.35547 216.777 9.00391C217.884 8.65234 219.121 8.47656 220.488 8.47656C222.129 8.47656 223.587 8.75 224.863 9.29687C226.139 9.84375 227.142 10.6641 227.871 11.7578C228.613 12.8516 228.984 14.2187 228.984 15.8594V24.9023C228.984 26.0612 229.056 27.0117 229.199 27.7539C229.342 28.4831 229.551 29.1211 229.824 29.668V30H224.141C223.867 29.4271 223.659 28.7109 223.516 27.8516C223.385 26.9792 223.32 26.1068 223.32 25.2344ZM224.062 17.1289L224.102 20.3125H220.957C220.215 20.3125 219.57 20.3971 219.023 20.5664C218.477 20.7357 218.027 20.9766 217.676 21.2891C217.324 21.5885 217.064 21.9401 216.895 22.3437C216.738 22.7474 216.66 23.1901 216.66 23.6719C216.66 24.1536 216.771 24.5898 216.992 24.9805C217.214 25.3581 217.533 25.6576 217.949 25.8789C218.366 26.0872 218.854 26.1914 219.414 26.1914C220.26 26.1914 220.996 26.0221 221.621 25.6836C222.246 25.3451 222.728 24.9284 223.066 24.4336C223.418 23.9388 223.6 23.4701 223.613 23.0273L225.098 25.4102C224.889 25.944 224.603 26.4974 224.238 27.0703C223.887 27.6432 223.438 28.1836 222.891 28.6914C222.344 29.1862 221.686 29.5964 220.918 29.9219C220.15 30.2344 219.238 30.3906 218.184 30.3906C216.842 30.3906 215.625 30.1237 214.531 29.5898C213.451 29.043 212.591 28.2943 211.953 27.3437C211.328 26.3802 211.016 25.2865 211.016 24.0625C211.016 22.9557 211.224 21.9727 211.641 21.1133C212.057 20.2539 212.669 19.5312 213.477 18.9453C214.297 18.3464 215.319 17.8971 216.543 17.5977C217.767 17.2852 219.186 17.1289 220.801 17.1289H224.062ZM254.137 25.6055V30H238.082V25.6055H254.137ZM253.824 12.1094L240.348 30H236.578V26.6602L249.996 8.86719H253.824V12.1094ZM251.832 8.86719V13.2812H236.891V8.86719L251.832 8.86719ZM273.098 24.1602C273.098 23.7565 272.98 23.3919 272.746 23.0664C272.512 22.7409 272.076 22.4414 271.438 22.168C270.812 21.8815 269.908 21.6211 268.723 21.3867C267.655 21.1523 266.659 20.8594 265.734 20.5078C264.823 20.1432 264.029 19.707 263.352 19.1992C262.688 18.6914 262.167 18.0924 261.789 17.4023C261.411 16.6992 261.223 15.8984 261.223 15C261.223 14.1146 261.411 13.2812 261.789 12.5C262.18 11.7187 262.733 11.0286 263.449 10.4297C264.178 9.81771 265.064 9.34245 266.105 9.00391C267.16 8.65234 268.345 8.47656 269.66 8.47656C271.496 8.47656 273.072 8.76953 274.387 9.35547C275.715 9.94141 276.73 10.7487 277.434 11.7773C278.15 12.793 278.508 13.9518 278.508 15.2539H272.883C272.883 14.707 272.766 14.2187 272.531 13.7891C272.31 13.3464 271.958 13.0013 271.477 12.7539C271.008 12.4935 270.396 12.3633 269.641 12.3633C269.016 12.3633 268.475 12.474 268.02 12.6953C267.564 12.9036 267.212 13.1901 266.965 13.5547C266.73 13.9062 266.613 14.2969 266.613 14.7266C266.613 15.0521 266.678 15.3451 266.809 15.6055C266.952 15.8529 267.18 16.0807 267.492 16.2891C267.805 16.4974 268.208 16.6927 268.703 16.875C269.211 17.0443 269.836 17.2005 270.578 17.3437C272.102 17.6562 273.462 18.0664 274.66 18.5742C275.858 19.069 276.809 19.7461 277.512 20.6055C278.215 21.4518 278.566 22.5651 278.566 23.9453C278.566 24.8828 278.358 25.7422 277.941 26.5234C277.525 27.3047 276.926 27.9883 276.145 28.5742C275.363 29.1471 274.426 29.5964 273.332 29.9219C272.251 30.2344 271.034 30.3906 269.68 30.3906C267.714 30.3906 266.047 30.0391 264.68 29.3359C263.326 28.6328 262.297 27.7409 261.594 26.6602C260.904 25.5664 260.559 24.4466 260.559 23.3008H265.891C265.917 24.069 266.112 24.6875 266.477 25.1562C266.854 25.625 267.329 25.9635 267.902 26.1719C268.488 26.3802 269.12 26.4844 269.797 26.4844C270.526 26.4844 271.132 26.3867 271.613 26.1914C272.095 25.9831 272.46 25.7096 272.707 25.3711C272.967 25.0195 273.098 24.6159 273.098 24.1602ZM303.207 1.5625H308.168L315.473 22.4414L322.777 1.5625H327.738L317.465 30H313.48L303.207 1.5625ZM300.531 1.5625L305.473 1.5625L306.371 21.9141V30H300.531V1.5625ZM325.473 1.5625H330.434V30H324.574V21.9141L325.473 1.5625ZM348.945 30.3906C347.305 30.3906 345.833 30.1302 344.531 29.6094C343.229 29.0755 342.122 28.3398 341.211 27.4023C340.312 26.4648 339.622 25.3776 339.141 24.1406C338.659 22.8906 338.418 21.5625 338.418 20.1562V19.375C338.418 17.7734 338.646 16.3086 339.102 14.9805C339.557 13.6523 340.208 12.5 341.055 11.5234C341.914 10.5469 342.956 9.79818 344.18 9.27734C345.404 8.74349 346.784 8.47656 348.32 8.47656C349.818 8.47656 351.146 8.72396 352.305 9.21875C353.464 9.71354 354.434 10.4167 355.215 11.3281C356.009 12.2396 356.608 13.3333 357.012 14.6094C357.415 15.8724 357.617 17.2786 357.617 18.8281V21.1719H340.82V17.4219H352.09V16.9922C352.09 16.2109 351.947 15.5143 351.66 14.9023C351.387 14.2773 350.97 13.7826 350.41 13.418C349.85 13.0534 349.134 12.8711 348.262 12.8711C347.52 12.8711 346.882 13.0339 346.348 13.3594C345.814 13.6849 345.378 14.1406 345.039 14.7266C344.714 15.3125 344.466 16.0026 344.297 16.7969C344.141 17.5781 344.062 18.4375 344.062 19.375V20.1562C344.062 21.0026 344.18 21.7839 344.414 22.5C344.661 23.2161 345.007 23.8346 345.449 24.3555C345.905 24.8763 346.452 25.2799 347.09 25.5664C347.741 25.8529 348.477 25.9961 349.297 25.9961C350.312 25.9961 351.257 25.8008 352.129 25.4102C353.014 25.0065 353.776 24.401 354.414 23.5937L357.148 26.5625C356.706 27.2005 356.1 27.8125 355.332 28.3984C354.577 28.9844 353.665 29.4661 352.598 29.8437C351.53 30.2083 350.312 30.3906 348.945 30.3906ZM370.445 13.2422V30H364.801V8.86719H370.094L370.445 13.2422ZM369.664 18.6914H368.102C368.102 17.2201 368.277 15.8659 368.629 14.6289C368.993 13.3789 369.521 12.2982 370.211 11.3867C370.914 10.4622 371.78 9.74609 372.809 9.23828C373.837 8.73047 375.029 8.47656 376.383 8.47656C377.32 8.47656 378.18 8.61979 378.961 8.90625C379.742 9.17969 380.413 9.61589 380.973 10.2148C381.546 10.8008 381.988 11.569 382.301 12.5195C382.613 13.457 382.77 14.5833 382.77 15.8984V30H377.145V16.5234C377.145 15.5599 377.014 14.8177 376.754 14.2969C376.493 13.776 376.122 13.4115 375.641 13.2031C375.172 12.9948 374.605 12.8906 373.941 12.8906C373.212 12.8906 372.574 13.0404 372.027 13.3398C371.493 13.6393 371.051 14.056 370.699 14.5898C370.348 15.1107 370.087 15.7227 369.918 16.4258C369.749 17.1289 369.664 17.8841 369.664 18.6914ZM382.242 18.0469L380.23 18.3008C380.23 16.9206 380.4 15.638 380.738 14.4531C381.09 13.2682 381.604 12.2266 382.281 11.3281C382.971 10.4297 383.824 9.73307 384.84 9.23828C385.855 8.73047 387.027 8.47656 388.355 8.47656C389.371 8.47656 390.296 8.6263 391.129 8.92578C391.962 9.21224 392.672 9.67448 393.258 10.3125C393.857 10.9375 394.312 11.7578 394.625 12.7734C394.951 13.7891 395.113 15.0326 395.113 16.5039V30H389.469V16.5039C389.469 15.5273 389.339 14.7852 389.078 14.2773C388.831 13.7565 388.466 13.3984 387.984 13.2031C387.516 12.9948 386.956 12.8906 386.305 12.8906C385.628 12.8906 385.035 13.0273 384.527 13.3008C384.02 13.5612 383.596 13.9258 383.258 14.3945C382.919 14.8633 382.665 15.4102 382.496 16.0352C382.327 16.6471 382.242 17.3177 382.242 18.0469ZM403.469 0H409.094V25.1562L408.527 30L403.469 30V0ZM422.473 19.2187V19.6289C422.473 21.2044 422.303 22.6497 421.965 23.9648C421.639 25.2799 421.132 26.4193 420.441 27.3828C419.751 28.3333 418.892 29.0755 417.863 29.6094C416.848 30.1302 415.65 30.3906 414.27 30.3906C412.98 30.3906 411.861 30.1302 410.91 29.6094C409.973 29.0885 409.185 28.3529 408.547 27.4023C407.909 26.4518 407.395 25.3385 407.004 24.0625C406.613 22.7865 406.32 21.3932 406.125 19.8828V18.9844C406.32 17.474 406.613 16.0807 407.004 14.8047C407.395 13.5286 407.909 12.4154 408.547 11.4648C409.185 10.5143 409.973 9.77865 410.91 9.25781C411.848 8.73698 412.954 8.47656 414.23 8.47656C415.624 8.47656 416.835 8.74349 417.863 9.27734C418.905 9.79818 419.764 10.5404 420.441 11.5039C421.132 12.4544 421.639 13.5872 421.965 14.9023C422.303 16.2044 422.473 17.6432 422.473 19.2187ZM416.848 19.6289V19.2187C416.848 18.3594 416.783 17.5521 416.652 16.7969C416.535 16.0286 416.327 15.3581 416.027 14.7852C415.728 14.1992 415.318 13.737 414.797 13.3984C414.289 13.0599 413.632 12.8906 412.824 12.8906C412.056 12.8906 411.405 13.0208 410.871 13.2812C410.337 13.5417 409.895 13.9062 409.543 14.375C409.204 14.8437 408.951 15.4036 408.781 16.0547C408.612 16.6927 408.508 17.3958 408.469 18.1641V20.7227C408.508 21.7513 408.677 22.6628 408.977 23.457C409.289 24.2383 409.758 24.8568 410.383 25.3125C411.021 25.7552 411.848 25.9766 412.863 25.9766C413.658 25.9766 414.315 25.8203 414.836 25.5078C415.357 25.1953 415.76 24.7526 416.047 24.1797C416.346 23.6068 416.555 22.9362 416.672 22.168C416.789 21.3867 416.848 20.5404 416.848 19.6289ZM439.695 30.3906C438.055 30.3906 436.583 30.1302 435.281 29.6094C433.979 29.0755 432.872 28.3398 431.961 27.4023C431.062 26.4648 430.372 25.3776 429.891 24.1406C429.409 22.8906 429.168 21.5625 429.168 20.1562V19.375C429.168 17.7734 429.396 16.3086 429.852 14.9805C430.307 13.6523 430.958 12.5 431.805 11.5234C432.664 10.5469 433.706 9.79818 434.93 9.27734C436.154 8.74349 437.534 8.47656 439.07 8.47656C440.568 8.47656 441.896 8.72396 443.055 9.21875C444.214 9.71354 445.184 10.4167 445.965 11.3281C446.759 12.2396 447.358 13.3333 447.762 14.6094C448.165 15.8724 448.367 17.2786 448.367 18.8281V21.1719L431.57 21.1719V17.4219L442.84 17.4219V16.9922C442.84 16.2109 442.697 15.5143 442.41 14.9023C442.137 14.2773 441.72 13.7826 441.16 13.418C440.6 13.0534 439.884 12.8711 439.012 12.8711C438.27 12.8711 437.632 13.0339 437.098 13.3594C436.564 13.6849 436.128 14.1406 435.789 14.7266C435.464 15.3125 435.216 16.0026 435.047 16.7969C434.891 17.5781 434.812 18.4375 434.812 19.375V20.1562C434.812 21.0026 434.93 21.7839 435.164 22.5C435.411 23.2161 435.757 23.8346 436.199 24.3555C436.655 24.8763 437.202 25.2799 437.84 25.5664C438.491 25.8529 439.227 25.9961 440.047 25.9961C441.062 25.9961 442.007 25.8008 442.879 25.4102C443.764 25.0065 444.526 24.401 445.164 23.5937L447.898 26.5625C447.456 27.2005 446.85 27.8125 446.082 28.3984C445.327 28.9844 444.415 29.4661 443.348 29.8437C442.28 30.2083 441.062 30.3906 439.695 30.3906ZM461.195 13.4766V30H455.57V8.86719H460.863L461.195 13.4766ZM467.562 8.73047L467.465 13.9453C467.191 13.9062 466.859 13.8737 466.469 13.8477C466.091 13.8086 465.746 13.7891 465.434 13.7891C464.639 13.7891 463.949 13.8932 463.363 14.1016C462.79 14.2969 462.309 14.5898 461.918 14.9805C461.54 15.3711 461.254 15.8464 461.059 16.4062C460.876 16.9661 460.772 17.6042 460.746 18.3203L459.613 17.9687C459.613 16.6016 459.75 15.3451 460.023 14.1992C460.297 13.0404 460.694 12.0312 461.215 11.1719C461.749 10.3125 462.4 9.64844 463.168 9.17969C463.936 8.71094 464.815 8.47656 465.805 8.47656C466.117 8.47656 466.436 8.5026 466.762 8.55469C467.087 8.59375 467.354 8.65234 467.562 8.73047ZM485.645 24.1602C485.645 23.7565 485.527 23.3919 485.293 23.0664C485.059 22.7409 484.622 22.4414 483.984 22.168C483.359 21.8815 482.454 21.6211 481.27 21.3867C480.202 21.1523 479.206 20.8594 478.281 20.5078C477.37 20.1432 476.576 19.707 475.898 19.1992C475.234 18.6914 474.714 18.0924 474.336 17.4023C473.958 16.6992 473.77 15.8984 473.77 15C473.77 14.1146 473.958 13.2812 474.336 12.5C474.727 11.7187 475.28 11.0286 475.996 10.4297C476.725 9.81771 477.611 9.34245 478.652 9.00391C479.707 8.65234 480.892 8.47656 482.207 8.47656C484.043 8.47656 485.618 8.76953 486.934 9.35547C488.262 9.94141 489.277 10.7487 489.98 11.7773C490.697 12.793 491.055 13.9518 491.055 15.2539H485.43C485.43 14.707 485.312 14.2187 485.078 13.7891C484.857 13.3464 484.505 13.0013 484.023 12.7539C483.555 12.4935 482.943 12.3633 482.188 12.3633C481.562 12.3633 481.022 12.474 480.566 12.6953C480.111 12.9036 479.759 13.1901 479.512 13.5547C479.277 13.9062 479.16 14.2969 479.16 14.7266C479.16 15.0521 479.225 15.3451 479.355 15.6055C479.499 15.8529 479.727 16.0807 480.039 16.2891C480.352 16.4974 480.755 16.6927 481.25 16.875C481.758 17.0443 482.383 17.2005 483.125 17.3437C484.648 17.6562 486.009 18.0664 487.207 18.5742C488.405 19.069 489.355 19.7461 490.059 20.6055C490.762 21.4518 491.113 22.5651 491.113 23.9453C491.113 24.8828 490.905 25.7422 490.488 26.5234C490.072 27.3047 489.473 27.9883 488.691 28.5742C487.91 29.1471 486.973 29.5964 485.879 29.9219C484.798 30.2344 483.581 30.3906 482.227 30.3906C480.26 30.3906 478.594 30.0391 477.227 29.3359C475.872 28.6328 474.844 27.7409 474.141 26.6602C473.451 25.5664 473.105 24.4466 473.105 23.3008H478.438C478.464 24.069 478.659 24.6875 479.023 25.1562C479.401 25.625 479.876 25.9635 480.449 26.1719C481.035 26.3802 481.667 26.4844 482.344 26.4844C483.073 26.4844 483.678 26.3867 484.16 26.1914C484.642 25.9831 485.007 25.7096 485.254 25.3711C485.514 25.0195 485.645 24.6159 485.645 24.1602ZM504.254 0V30H498.629V0H504.254ZM503.453 18.6914H501.91C501.923 17.2201 502.118 15.8659 502.496 14.6289C502.874 13.3789 503.414 12.2982 504.117 11.3867C504.82 10.4622 505.66 9.74609 506.637 9.23828C507.626 8.73047 508.72 8.47656 509.918 8.47656C510.96 8.47656 511.904 8.6263 512.75 8.92578C513.609 9.21224 514.345 9.68099 514.957 10.332C515.582 10.9701 516.064 11.8099 516.402 12.8516C516.741 13.8932 516.91 15.1562 516.91 16.6406V30H511.246V16.6016C511.246 15.6641 511.109 14.9284 510.836 14.3945C510.576 13.8477 510.191 13.4635 509.684 13.2422C509.189 13.0078 508.577 12.8906 507.848 12.8906C507.04 12.8906 506.35 13.0404 505.777 13.3398C505.217 13.6393 504.768 14.056 504.43 14.5898C504.091 15.1107 503.844 15.7227 503.688 16.4258C503.531 17.1289 503.453 17.8841 503.453 18.6914ZM531.125 8.86719V30H525.48V8.86719H531.125ZM525.129 3.35937C525.129 2.53906 525.415 1.86198 525.988 1.32812C526.561 0.794271 527.329 0.527344 528.293 0.527344C529.243 0.527344 530.005 0.794271 530.578 1.32812C531.164 1.86198 531.457 2.53906 531.457 3.35937C531.457 4.17969 531.164 4.85677 530.578 5.39062C530.005 5.92448 529.243 6.19141 528.293 6.19141C527.329 6.19141 526.561 5.92448 525.988 5.39062C525.415 4.85677 525.129 4.17969 525.129 3.35937ZM545.398 12.9297V38.125H539.773V8.86719H544.988L545.398 12.9297ZM558.777 19.1992V19.6094C558.777 21.1458 558.595 22.5716 558.23 23.8867C557.879 25.2018 557.358 26.3477 556.668 27.3242C555.978 28.2878 555.118 29.043 554.09 29.5898C553.074 30.1237 551.902 30.3906 550.574 30.3906C549.285 30.3906 548.165 30.1302 547.215 29.6094C546.264 29.0885 545.464 28.3594 544.812 27.4219C544.174 26.4714 543.66 25.3711 543.27 24.1211C542.879 22.8711 542.579 21.5299 542.371 20.0977V19.0234C542.579 17.487 542.879 16.0807 543.27 14.8047C543.66 13.5156 544.174 12.4023 544.812 11.4648C545.464 10.5143 546.258 9.77865 547.195 9.25781C548.146 8.73698 549.259 8.47656 550.535 8.47656C551.876 8.47656 553.055 8.73047 554.07 9.23828C555.099 9.74609 555.958 10.4753 556.648 11.4258C557.352 12.3763 557.879 13.5091 558.23 14.8242C558.595 16.1393 558.777 17.5977 558.777 19.1992ZM553.133 19.6094V19.1992C553.133 18.3008 553.055 17.474 552.898 16.7187C552.755 15.9505 552.521 15.2799 552.195 14.707C551.883 14.1341 551.466 13.6914 550.945 13.3789C550.438 13.0534 549.819 12.8906 549.09 12.8906C548.322 12.8906 547.664 13.0143 547.117 13.2617C546.583 13.5091 546.147 13.8672 545.809 14.3359C545.47 14.8047 545.216 15.3646 545.047 16.0156C544.878 16.6667 544.773 17.4023 544.734 18.2227V20.9375C544.799 21.901 544.982 22.7669 545.281 23.5352C545.581 24.2904 546.043 24.8893 546.668 25.332C547.293 25.7747 548.113 25.9961 549.129 25.9961C549.871 25.9961 550.496 25.8333 551.004 25.5078C551.512 25.1693 551.922 24.707 552.234 24.1211C552.56 23.5352 552.788 22.8581 552.918 22.0898C553.061 21.3216 553.133 20.4948 553.133 19.6094Z" fill="#8E1F44"/>
</svg>
