<svg width="400" height="73" viewBox="0 0 400 73" fill="none" xmlns="http://www.w3.org/2000/svg">
<path d="M19.4 17.9C21.6 17.9 23.4 18.2333 24.8 18.9C26.2333 19.5333 27.5 20.2833 28.6 21.15C29.2667 21.65 29.7667 21.7167 30.1 21.35C30.4667 20.95 30.7167 20.0333 30.85 18.6H32C31.9333 19.8667 31.8833 21.4167 31.85 23.25C31.8167 25.0833 31.8 27.5 31.8 30.5H30.65C30.45 29 30.2333 27.75 30 26.75C29.7667 25.7167 29.4333 24.8333 29 24.1C28.6 23.3667 28.0333 22.6667 27.3 22C26.4 21 25.3167 20.2667 24.05 19.8C22.8167 19.3 21.5167 19.05 20.15 19.05C18.4167 19.05 16.9 19.5167 15.6 20.45C14.3333 21.35 13.2667 22.6 12.4 24.2C11.5667 25.7667 10.9333 27.6 10.5 29.7C10.1 31.8 9.9 34.0333 9.9 36.4C9.9 38.8333 10.1167 41.1 10.55 43.2C11.0167 45.2667 11.6833 47.0833 12.55 48.65C13.45 50.1833 14.55 51.3833 15.85 52.25C17.1833 53.1167 18.7167 53.55 20.45 53.55C21.6833 53.55 22.95 53.3167 24.25 52.85C25.55 52.3833 26.6167 51.6667 27.45 50.7C28.55 49.7 29.3 48.5167 29.7 47.15C30.1 45.75 30.4167 43.9 30.65 41.6H31.8C31.8 44.7333 31.8167 47.2667 31.85 49.2C31.8833 51.1 31.9333 52.7 32 54H30.85C30.7167 52.5667 30.4833 51.6667 30.15 51.3C29.85 50.9333 29.3333 50.9833 28.6 51.45C27.3667 52.3167 26.05 53.0833 24.65 53.75C23.2833 54.3833 21.5167 54.7 19.35 54.7C15.95 54.7 12.9667 53.9833 10.4 52.55C7.83333 51.1167 5.83333 49.05 4.4 46.35C3 43.65 2.3 40.4 2.3 36.6C2.3 32.8667 3.03333 29.6 4.5 26.8C5.96667 24 7.98333 21.8167 10.55 20.25C13.1167 18.6833 16.0667 17.9 19.4 17.9ZM42.5098 15.4C43.7098 15.4 44.6931 15.7333 45.4598 16.4C46.2264 17.0667 46.6098 17.95 46.6098 19.05C46.6098 20.15 46.2264 21.0333 45.4598 21.7C44.6931 22.3667 43.7098 22.7 42.5098 22.7C41.3098 22.7 40.3264 22.3667 39.5598 21.7C38.7931 21.0333 38.4098 20.15 38.4098 19.05C38.4098 17.95 38.7931 17.0667 39.5598 16.4C40.3264 15.7333 41.3098 15.4 42.5098 15.4ZM46.0098 27.6V49.35C46.0098 50.75 46.2598 51.7 46.7598 52.2C47.2931 52.7 48.1764 52.95 49.4098 52.95V54C48.8098 53.9667 47.8931 53.9333 46.6598 53.9C45.4264 53.8333 44.1764 53.8 42.9098 53.8C41.6764 53.8 40.4264 53.8333 39.1598 53.9C37.8931 53.9333 36.9431 53.9667 36.3098 54V52.95C37.5431 52.95 38.4098 52.7 38.9098 52.2C39.4431 51.7 39.7098 50.75 39.7098 49.35V33.65C39.7098 32.1167 39.4598 31 38.9598 30.3C38.4931 29.5667 37.6098 29.2 36.3098 29.2V28.15C37.3764 28.25 38.4098 28.3 39.4098 28.3C40.6431 28.3 41.8098 28.25 42.9098 28.15C44.0431 28.0167 45.0764 27.8333 46.0098 27.6ZM61.1406 19.95V28.2H67.5406V29.2H61.1406V49.1C61.1406 50.3 61.3573 51.15 61.7906 51.65C62.224 52.15 62.8406 52.4 63.6406 52.4C64.4073 52.4 65.1073 52.1167 65.7406 51.55C66.374 50.95 66.9406 49.9667 67.4406 48.6L68.3406 49C67.8406 50.6333 67.0573 52 65.9906 53.1C64.9573 54.1667 63.4906 54.7 61.5906 54.7C60.4573 54.7 59.4906 54.55 58.6906 54.25C57.924 53.9833 57.2573 53.5833 56.6906 53.05C55.9573 52.2833 55.4573 51.3667 55.1906 50.3C54.9573 49.2333 54.8406 47.8167 54.8406 46.05V29.2H50.4406V28.2H54.8406V21.25C56.0406 21.2167 57.1573 21.1 58.1906 20.9C59.224 20.7 60.2073 20.3833 61.1406 19.95ZM93.2688 28.15V29.2C92.6354 29.3333 92.0354 29.6833 91.4688 30.25C90.9354 30.8167 90.4188 31.8167 89.9188 33.25L82.5188 53.55L80.9688 55.9L70.6688 32C70.0354 30.7333 69.4354 29.95 68.8688 29.65C68.3021 29.35 67.8354 29.2 67.4687 29.2V28.15C68.4354 28.25 69.4354 28.3333 70.4688 28.4C71.5354 28.4333 72.6021 28.45 73.6688 28.45C74.9021 28.45 76.0854 28.4167 77.2188 28.35C78.3854 28.2833 79.4688 28.2167 80.4688 28.15V29.2C79.7021 29.2 79.0188 29.25 78.4188 29.35C77.8188 29.45 77.4188 29.7333 77.2188 30.2C77.0521 30.6333 77.1854 31.4 77.6188 32.5L83.8688 47.75L83.4688 47.95L87.8688 36.05C88.4354 34.4833 88.6688 33.2167 88.5688 32.25C88.4688 31.2833 88.1021 30.55 87.4688 30.05C86.8354 29.55 85.9688 29.2667 84.8688 29.2V28.15C85.4021 28.1833 85.9354 28.2167 86.4688 28.25C87.0021 28.2833 87.5188 28.3167 88.0188 28.35C88.5188 28.35 89.0021 28.35 89.4688 28.35C90.1688 28.35 90.8521 28.3333 91.5188 28.3C92.2188 28.2667 92.8021 28.2167 93.2688 28.15ZM82.5188 53.55L80.6188 58.6C80.3188 59.4333 79.9854 60.1333 79.6188 60.7C79.2854 61.3 78.9021 61.7833 78.4688 62.15C77.9688 62.5833 77.3521 62.9 76.6188 63.1C75.9188 63.3 75.1354 63.4 74.2688 63.4C73.5021 63.4 72.7521 63.2667 72.0188 63C71.3188 62.7333 70.7188 62.3333 70.2188 61.8C69.7521 61.2667 69.5188 60.5667 69.5188 59.7C69.5188 58.7667 69.8354 58.0167 70.4688 57.45C71.1021 56.8833 71.9688 56.6 73.0688 56.6C74.0354 56.6 74.8188 56.8333 75.4188 57.3C76.0521 57.8 76.3688 58.5333 76.3688 59.5C76.3688 60.1333 76.1854 60.7 75.8188 61.2C75.4521 61.7 74.9354 62.0833 74.2688 62.35C74.4354 62.3833 74.5854 62.4 74.7188 62.4C74.8854 62.4333 75.0188 62.45 75.1188 62.45C76.0854 62.45 76.9521 62.1333 77.7188 61.5C78.4854 60.8667 79.1021 59.8667 79.5688 58.5L81.3688 53.55H82.5188ZM117.899 18C119.766 18 121.199 18.2 122.199 18.6C123.199 19 124.066 19.4333 124.799 19.9C125.199 20.1333 125.516 20.3167 125.749 20.45C126.016 20.55 126.266 20.6 126.499 20.6C126.833 20.6 127.066 20.4167 127.199 20.05C127.366 19.6833 127.499 19.1333 127.599 18.4H128.749C128.716 19.0333 128.666 19.7667 128.599 20.6C128.566 21.4333 128.533 22.55 128.499 23.95C128.499 25.3167 128.499 27.1333 128.499 29.4H127.349C127.249 27.7 126.866 26.0667 126.199 24.5C125.566 22.9333 124.649 21.65 123.449 20.65C122.283 19.6167 120.783 19.1 118.949 19.1C117.316 19.1 115.949 19.5833 114.849 20.55C113.783 21.5167 113.249 22.8167 113.249 24.45C113.249 25.85 113.599 27.0333 114.299 28C114.999 28.9333 115.983 29.85 117.249 30.75C118.549 31.6167 120.083 32.6167 121.849 33.75C123.483 34.8167 124.949 35.8833 126.249 36.95C127.549 37.9833 128.566 39.1333 129.299 40.4C130.066 41.6667 130.449 43.2167 130.449 45.05C130.449 47.2167 129.916 49.0167 128.849 50.45C127.783 51.8833 126.349 52.95 124.549 53.65C122.749 54.35 120.783 54.7 118.649 54.7C116.683 54.7 115.116 54.5 113.949 54.1C112.816 53.7 111.833 53.2833 110.999 52.85C110.266 52.3833 109.699 52.15 109.299 52.15C108.966 52.15 108.716 52.3333 108.549 52.7C108.416 53.0667 108.299 53.6167 108.199 54.35H107.049C107.116 53.5833 107.149 52.6833 107.149 51.65C107.183 50.6167 107.199 49.2833 107.199 47.65C107.233 45.9833 107.249 43.8833 107.249 41.35H108.399C108.533 43.4833 108.899 45.4833 109.499 47.35C110.133 49.1833 111.083 50.6667 112.349 51.8C113.649 52.9333 115.366 53.5 117.499 53.5C118.666 53.5 119.716 53.3 120.649 52.9C121.616 52.4667 122.383 51.8167 122.949 50.95C123.516 50.05 123.799 48.9167 123.799 47.55C123.799 46.1833 123.483 44.9833 122.849 43.95C122.216 42.9167 121.333 41.95 120.199 41.05C119.066 40.15 117.733 39.2333 116.199 38.3C114.633 37.3 113.166 36.2833 111.799 35.25C110.433 34.2167 109.333 33.05 108.499 31.75C107.699 30.4167 107.299 28.8167 107.299 26.95C107.299 24.8833 107.799 23.2 108.799 21.9C109.799 20.5667 111.099 19.5833 112.699 18.95C114.333 18.3167 116.066 18 117.899 18ZM144.971 28.15V29.2C144.171 29.2 143.487 29.2667 142.921 29.4C142.354 29.5 141.971 29.7667 141.771 30.2C141.604 30.6333 141.687 31.4 142.021 32.5L146.921 47.4L146.371 47.8L152.721 28.05L153.771 28.55L145.621 54.15C145.221 54.1167 144.804 54.1 144.371 54.1C143.971 54.1 143.571 54.1167 143.171 54.15L135.171 32C134.637 30.6667 134.104 29.8667 133.571 29.6C133.071 29.3333 132.637 29.2 132.271 29.2V28.15C133.204 28.25 134.171 28.3333 135.171 28.4C136.171 28.4333 137.271 28.45 138.471 28.45C139.504 28.45 140.587 28.4167 141.721 28.35C142.887 28.2833 143.971 28.2167 144.971 28.15ZM171.521 28.15V29.2C170.887 29.3333 170.271 29.6833 169.671 30.25C169.104 30.7833 168.587 31.7833 168.121 33.25L161.271 54.15C160.871 54.1167 160.471 54.1 160.071 54.1C159.671 54.1 159.254 54.1167 158.821 54.15L151.471 34.5L152.771 28.05C153.237 28.0833 153.704 28.1 154.171 28.1C154.637 28.1 155.104 28.0833 155.571 28.05L162.721 48.4L162.221 48.15L166.121 36.05C166.621 34.45 166.804 33.1667 166.671 32.2C166.571 31.2333 166.187 30.5167 165.521 30.05C164.887 29.55 164.004 29.2667 162.871 29.2V28.15C163.404 28.1833 163.954 28.2167 164.521 28.25C165.087 28.2833 165.637 28.3167 166.171 28.35C166.704 28.35 167.204 28.35 167.671 28.35C168.371 28.35 169.071 28.3333 169.771 28.3C170.471 28.2667 171.054 28.2167 171.521 28.15ZM184.798 27.45C187.732 27.45 190.032 28.3333 191.698 30.1C193.365 31.8667 194.198 34.6833 194.198 38.55H177.348L177.298 37.6H188.398C188.465 35.9667 188.365 34.4667 188.098 33.1C187.832 31.7 187.398 30.5833 186.798 29.75C186.232 28.9167 185.482 28.5 184.548 28.5C183.282 28.5 182.182 29.25 181.248 30.75C180.315 32.2167 179.732 34.6333 179.498 38L179.698 38.3C179.632 38.7333 179.582 39.2 179.548 39.7C179.548 40.2 179.548 40.7 179.548 41.2C179.548 43.5 179.882 45.4 180.548 46.9C181.215 48.4 182.082 49.5 183.148 50.2C184.215 50.9 185.315 51.25 186.448 51.25C187.215 51.25 187.998 51.1333 188.798 50.9C189.598 50.6667 190.382 50.2333 191.148 49.6C191.915 48.9667 192.615 48.0667 193.248 46.9L194.198 47.3C193.832 48.4667 193.215 49.6333 192.348 50.8C191.515 51.9333 190.432 52.8667 189.098 53.6C187.765 54.3333 186.198 54.7 184.398 54.7C182.132 54.7 180.132 54.2 178.398 53.2C176.665 52.2 175.315 50.7167 174.348 48.75C173.382 46.75 172.898 44.3167 172.898 41.45C172.898 38.4167 173.398 35.8667 174.398 33.8C175.432 31.7333 176.848 30.1667 178.648 29.1C180.448 28 182.498 27.45 184.798 27.45ZM210.043 27.45C212.976 27.45 215.276 28.3333 216.943 30.1C218.609 31.8667 219.443 34.6833 219.443 38.55H202.593L202.543 37.6H213.643C213.709 35.9667 213.609 34.4667 213.343 33.1C213.076 31.7 212.643 30.5833 212.043 29.75C211.476 28.9167 210.726 28.5 209.793 28.5C208.526 28.5 207.426 29.25 206.493 30.75C205.559 32.2167 204.976 34.6333 204.743 38L204.943 38.3C204.876 38.7333 204.826 39.2 204.793 39.7C204.793 40.2 204.793 40.7 204.793 41.2C204.793 43.5 205.126 45.4 205.793 46.9C206.459 48.4 207.326 49.5 208.393 50.2C209.459 50.9 210.559 51.25 211.693 51.25C212.459 51.25 213.243 51.1333 214.043 50.9C214.843 50.6667 215.626 50.2333 216.393 49.6C217.159 48.9667 217.859 48.0667 218.493 46.9L219.443 47.3C219.076 48.4667 218.459 49.6333 217.593 50.8C216.759 51.9333 215.676 52.8667 214.343 53.6C213.009 54.3333 211.443 54.7 209.643 54.7C207.376 54.7 205.376 54.2 203.643 53.2C201.909 52.2 200.559 50.7167 199.593 48.75C198.626 46.75 198.143 44.3167 198.143 41.45C198.143 38.4167 198.643 35.8667 199.643 33.8C200.676 31.7333 202.093 30.1667 203.893 29.1C205.693 28 207.743 27.45 210.043 27.45ZM232.137 19.95V28.2H238.537V29.2H232.137V49.1C232.137 50.3 232.353 51.15 232.787 51.65C233.22 52.15 233.837 52.4 234.637 52.4C235.403 52.4 236.103 52.1167 236.737 51.55C237.37 50.95 237.937 49.9667 238.437 48.6L239.337 49C238.837 50.6333 238.053 52 236.987 53.1C235.953 54.1667 234.487 54.7 232.587 54.7C231.453 54.7 230.487 54.55 229.687 54.25C228.92 53.9833 228.253 53.5833 227.687 53.05C226.953 52.2833 226.453 51.3667 226.187 50.3C225.953 49.2333 225.837 47.8167 225.837 46.05V29.2H221.437V28.2H225.837V21.25C227.037 21.2167 228.153 21.1 229.187 20.9C230.22 20.7 231.203 20.3833 232.137 19.95ZM249.815 27.45C251.215 27.45 252.415 27.65 253.415 28.05C254.415 28.45 255.148 28.8 255.615 29.1C256.748 29.9333 257.432 29.4 257.665 27.5H258.765C258.698 28.4667 258.648 29.6167 258.615 30.95C258.582 32.25 258.565 34 258.565 36.2H257.465C257.298 34.9667 256.982 33.7667 256.515 32.6C256.048 31.4333 255.365 30.4667 254.465 29.7C253.565 28.9 252.382 28.5 250.915 28.5C249.882 28.5 249.015 28.8 248.315 29.4C247.648 30 247.315 30.85 247.315 31.95C247.315 32.95 247.615 33.8333 248.215 34.6C248.815 35.3333 249.582 36.0333 250.515 36.7C251.482 37.3333 252.482 38.0333 253.515 38.8C254.715 39.6 255.782 40.4167 256.715 41.25C257.648 42.05 258.398 42.95 258.965 43.95C259.532 44.9167 259.815 46.0667 259.815 47.4C259.815 48.9333 259.382 50.25 258.515 51.35C257.682 52.4167 256.565 53.25 255.165 53.85C253.798 54.4167 252.282 54.7 250.615 54.7C249.715 54.7 248.898 54.6167 248.165 54.45C247.432 54.2833 246.782 54.0667 246.215 53.8C245.782 53.5667 245.382 53.35 245.015 53.15C244.682 52.95 244.332 52.7833 243.965 52.65C243.632 52.4833 243.332 52.55 243.065 52.85C242.832 53.15 242.648 53.65 242.515 54.35H241.415C241.482 53.2833 241.532 51.9833 241.565 50.45C241.598 48.9167 241.615 46.8833 241.615 44.35H242.715C242.948 46.1833 243.298 47.8 243.765 49.2C244.265 50.5667 244.982 51.65 245.915 52.45C246.848 53.2167 248.048 53.6 249.515 53.6C250.148 53.6 250.748 53.4667 251.315 53.2C251.915 52.9333 252.398 52.5167 252.765 51.95C253.165 51.3833 253.365 50.6167 253.365 49.65C253.365 48.1833 252.865 46.9667 251.865 46C250.865 45.0333 249.615 44 248.115 42.9C246.982 42.0667 245.915 41.25 244.915 40.45C243.948 39.65 243.148 38.75 242.515 37.75C241.915 36.75 241.615 35.5667 241.615 34.2C241.615 32.7 241.998 31.4667 242.765 30.5C243.532 29.5 244.532 28.75 245.765 28.25C247.032 27.7167 248.382 27.45 249.815 27.45Z" fill="#222222"/>
<rect y="72" width="400" height="1" fill="#222222"/>
<path d="M274.105 22.4766C274.105 23.5078 273.863 24.3789 273.379 25.0898C272.902 25.8008 272.254 26.3359 271.434 26.6953C270.613 27.0547 269.695 27.2344 268.68 27.2344C267.656 27.2344 266.734 27.0547 265.914 26.6953C265.094 26.3359 264.441 25.8008 263.957 25.0898C263.48 24.3789 263.242 23.5078 263.242 22.4766C263.242 21.7969 263.375 21.1797 263.641 20.625C263.914 20.0625 264.293 19.5781 264.777 19.1719C265.27 18.7578 265.844 18.4375 266.5 18.2109C267.156 17.9844 267.875 17.8711 268.656 17.8711C269.688 17.8711 270.613 18.0703 271.434 18.4688C272.254 18.8594 272.902 19.3984 273.379 20.0859C273.863 20.7734 274.105 21.5703 274.105 22.4766ZM272.699 22.4766C272.699 21.75 272.523 21.1133 272.172 20.5664C271.82 20.0195 271.34 19.5977 270.73 19.3008C270.121 18.9961 269.43 18.8438 268.656 18.8438C267.875 18.8438 267.184 18.9961 266.582 19.3008C265.98 19.5977 265.508 20.0195 265.164 20.5664C264.82 21.1133 264.648 21.75 264.648 22.4766C264.648 23.2344 264.816 23.8789 265.152 24.4102C265.496 24.9414 265.973 25.3438 266.582 25.6172C267.191 25.8906 267.891 26.0273 268.68 26.0273C269.469 26.0273 270.164 25.8906 270.766 25.6172C271.367 25.3438 271.84 24.9414 272.184 24.4102C272.527 23.8789 272.699 23.2344 272.699 22.4766ZM273.66 14.3203C273.66 15.1562 273.438 15.9023 272.992 16.5586C272.555 17.207 271.961 17.7188 271.211 18.0938C270.461 18.4609 269.613 18.6445 268.668 18.6445C267.715 18.6445 266.859 18.4609 266.102 18.0938C265.352 17.7188 264.758 17.207 264.32 16.5586C263.891 15.9023 263.676 15.1562 263.676 14.3203C263.676 13.3281 263.891 12.4922 264.32 11.8125C264.758 11.125 265.352 10.6016 266.102 10.2422C266.852 9.88281 267.703 9.70312 268.656 9.70312C269.602 9.70312 270.449 9.88281 271.199 10.2422C271.957 10.6016 272.555 11.125 272.992 11.8125C273.438 12.4922 273.66 13.3281 273.66 14.3203ZM272.266 14.3086C272.266 13.6445 272.105 13.0586 271.785 12.5508C271.473 12.043 271.043 11.6445 270.496 11.3555C269.957 11.0586 269.344 10.9102 268.656 10.9102C267.961 10.9102 267.344 11.0469 266.805 11.3203C266.273 11.5938 265.852 11.9844 265.539 12.4922C265.234 13 265.082 13.6055 265.082 14.3086C265.082 14.9961 265.234 15.5898 265.539 16.0898C265.852 16.582 266.277 16.9648 266.816 17.2383C267.355 17.5117 267.973 17.6484 268.668 17.6484C269.363 17.6484 269.98 17.5117 270.52 17.2383C271.059 16.9648 271.484 16.582 271.797 16.0898C272.109 15.5898 272.266 14.9961 272.266 14.3086Z" fill="#222222"/>
</svg>
