<svg width="261" height="48" viewBox="0 0 261 48" fill="none" xmlns="http://www.w3.org/2000/svg">
<path d="M21.7793 25.208H29.0791C28.9326 27.6006 28.2734 29.7246 27.1016 31.5801C25.946 33.4355 24.3265 34.8841 22.2432 35.9258C20.1761 36.9674 17.6859 37.4883 14.7725 37.4883C12.4938 37.4883 10.4512 37.0977 8.64453 36.3164C6.83789 35.5189 5.29167 34.3796 4.00586 32.8984C2.73633 31.4173 1.7679 29.627 1.10059 27.5273C0.433268 25.4277 0.0996094 23.0758 0.0996094 20.4717V18.0059C0.0996094 15.4017 0.441406 13.0498 1.125 10.9502C1.82487 8.83431 2.81771 7.03581 4.10352 5.55469C5.4056 4.07357 6.95996 2.93424 8.7666 2.13672C10.5732 1.33919 12.5915 0.94043 14.8213 0.94043C17.7835 0.94043 20.2819 1.47754 22.3164 2.55176C24.3672 3.62598 25.9541 5.1071 27.0771 6.99512C28.2165 8.88314 28.9001 11.0316 29.1279 13.4404H21.8037C21.7223 12.0081 21.4375 10.7956 20.9492 9.80273C20.4609 8.79362 19.7204 8.03678 18.7275 7.53223C17.751 7.01139 16.4489 6.75098 14.8213 6.75098C13.6006 6.75098 12.5345 6.97884 11.623 7.43457C10.7116 7.8903 9.94661 8.58203 9.32812 9.50977C8.70964 10.4375 8.24577 11.6094 7.93652 13.0254C7.64355 14.4251 7.49707 16.069 7.49707 17.957V20.4717C7.49707 22.3109 7.63542 23.9303 7.91211 25.3301C8.1888 26.7135 8.61198 27.8854 9.18164 28.8457C9.76758 29.7897 10.5163 30.5059 11.4277 30.9941C12.3555 31.4661 13.4704 31.7021 14.7725 31.7021C16.3024 31.7021 17.5638 31.458 18.5566 30.9697C19.5495 30.4814 20.3063 29.7572 20.8271 28.7969C21.3643 27.8366 21.6816 26.6403 21.7793 25.208ZM40.8711 10.584V37H33.8154V10.584H40.8711ZM33.376 3.69922C33.376 2.67383 33.734 1.82747 34.4502 1.16016C35.1663 0.492839 36.1266 0.15918 37.3311 0.15918C38.5192 0.15918 39.4714 0.492839 40.1875 1.16016C40.9199 1.82747 41.2861 2.67383 41.2861 3.69922C41.2861 4.72461 40.9199 5.57096 40.1875 6.23828C39.4714 6.9056 38.5192 7.23926 37.3311 7.23926C36.1266 7.23926 35.1663 6.9056 34.4502 6.23828C33.734 5.57096 33.376 4.72461 33.376 3.69922ZM59.6211 10.584V15.5645H44.2402V10.584H59.6211ZM48.0488 4.06543H55.0801V29.041C55.0801 29.806 55.1777 30.3919 55.373 30.7988C55.5846 31.2057 55.8939 31.4906 56.3008 31.6533C56.7077 31.7998 57.2204 31.873 57.8389 31.873C58.2783 31.873 58.6689 31.8568 59.0107 31.8242C59.3688 31.7754 59.6699 31.7266 59.9141 31.6777L59.9385 36.8535C59.3363 37.0488 58.6852 37.2035 57.9854 37.3174C57.2855 37.4313 56.5124 37.4883 55.666 37.4883C54.1198 37.4883 52.7689 37.236 51.6133 36.7314C50.474 36.2106 49.5951 35.3805 48.9766 34.2412C48.3581 33.1019 48.0488 31.6045 48.0488 29.749V4.06543ZM71.4619 34.0215L78.4688 10.584H86.0127L75.3926 40.9795C75.1647 41.6468 74.8555 42.363 74.4648 43.1279C74.0905 43.8929 73.5778 44.6172 72.9268 45.3008C72.292 46.0007 71.4863 46.5703 70.5098 47.0098C69.5495 47.4492 68.3695 47.6689 66.9697 47.6689C66.3024 47.6689 65.7572 47.6283 65.334 47.5469C64.9108 47.4655 64.4062 47.3516 63.8203 47.2051V42.0537C63.9993 42.0537 64.1865 42.0537 64.3818 42.0537C64.5771 42.07 64.7643 42.0781 64.9434 42.0781C65.8711 42.0781 66.6279 41.9723 67.2139 41.7607C67.7998 41.5492 68.2718 41.2236 68.6299 40.7842C68.988 40.361 69.2728 39.8076 69.4844 39.124L71.4619 34.0215ZM68.5322 10.584L74.2695 29.7246L75.2705 37.1709L70.4854 37.6836L60.9883 10.584H68.5322ZM120.217 27.6982C120.217 27.0635 120.119 26.4938 119.924 25.9893C119.745 25.4684 119.403 24.9964 118.898 24.5732C118.394 24.1338 117.686 23.7025 116.774 23.2793C115.863 22.8561 114.683 22.4167 113.234 21.9609C111.623 21.4401 110.093 20.8542 108.645 20.2031C107.212 19.5521 105.943 18.7952 104.836 17.9326C103.745 17.0537 102.883 16.0365 102.248 14.8809C101.63 13.7253 101.32 12.3825 101.32 10.8525C101.32 9.37142 101.646 8.02865 102.297 6.82422C102.948 5.60352 103.859 4.56185 105.031 3.69922C106.203 2.82031 107.587 2.14486 109.182 1.67285C110.793 1.20085 112.559 0.964844 114.479 0.964844C117.1 0.964844 119.387 1.43685 121.34 2.38086C123.293 3.32487 124.807 4.61882 125.881 6.2627C126.971 7.90658 127.517 9.78646 127.517 11.9023H120.241C120.241 10.8607 120.021 9.94922 119.582 9.16797C119.159 8.37044 118.508 7.74382 117.629 7.28809C116.766 6.83236 115.676 6.60449 114.357 6.60449C113.088 6.60449 112.03 6.7998 111.184 7.19043C110.337 7.56478 109.702 8.07747 109.279 8.72852C108.856 9.36328 108.645 10.0794 108.645 10.877C108.645 11.4792 108.791 12.0244 109.084 12.5127C109.393 13.001 109.849 13.4567 110.451 13.8799C111.053 14.3031 111.794 14.7018 112.673 15.0762C113.552 15.4505 114.569 15.8167 115.725 16.1748C117.661 16.7607 119.362 17.4199 120.827 18.1523C122.308 18.8848 123.545 19.7067 124.538 20.6182C125.531 21.5296 126.28 22.5632 126.784 23.7188C127.289 24.8743 127.541 26.1846 127.541 27.6494C127.541 29.1956 127.24 30.5791 126.638 31.7998C126.035 33.0205 125.165 34.054 124.025 34.9004C122.886 35.7467 121.527 36.3896 119.948 36.8291C118.369 37.2686 116.604 37.4883 114.65 37.4883C112.893 37.4883 111.159 37.2604 109.45 36.8047C107.741 36.3327 106.187 35.6247 104.787 34.6807C103.404 33.7367 102.297 32.5322 101.467 31.0674C100.637 29.6025 100.222 27.8691 100.222 25.8672H107.57C107.57 26.974 107.741 27.9098 108.083 28.6748C108.425 29.4398 108.905 30.0583 109.523 30.5303C110.158 31.0023 110.907 31.3441 111.77 31.5557C112.648 31.7673 113.609 31.873 114.65 31.873C115.92 31.873 116.962 31.694 117.775 31.3359C118.605 30.9779 119.216 30.4814 119.606 29.8467C120.013 29.2119 120.217 28.4958 120.217 27.6982ZM139.626 30.1641L145.119 10.584H149.587L148.146 18.2744L142.653 37H138.918L139.626 30.1641ZM136.843 10.584L140.773 30.1396L141.14 37H136.745L130.056 10.584H136.843ZM154.616 29.8223L158.449 10.584H165.261L158.571 37H154.201L154.616 29.8223ZM150.197 10.584L155.666 30.0176L156.423 37H152.663L147.17 18.2988L145.778 10.584H150.197ZM180.959 37.4883C178.908 37.4883 177.069 37.1628 175.441 36.5117C173.814 35.8444 172.43 34.9248 171.291 33.7529C170.168 32.5811 169.305 31.222 168.703 29.6758C168.101 28.1133 167.8 26.4531 167.8 24.6953V23.7188C167.8 21.7168 168.085 19.8857 168.654 18.2256C169.224 16.5654 170.038 15.125 171.096 13.9043C172.17 12.6836 173.472 11.7477 175.002 11.0967C176.532 10.4294 178.257 10.0957 180.178 10.0957C182.049 10.0957 183.71 10.4049 185.158 11.0234C186.607 11.6419 187.819 12.5208 188.796 13.6602C189.789 14.7995 190.537 16.1667 191.042 17.7617C191.547 19.3405 191.799 21.0983 191.799 23.0352V25.9648H170.803V21.2773H184.89V20.7402C184.89 19.7637 184.711 18.8929 184.353 18.1279C184.011 17.3467 183.49 16.7282 182.79 16.2725C182.09 15.8167 181.195 15.5889 180.104 15.5889C179.177 15.5889 178.379 15.7923 177.712 16.1992C177.045 16.6061 176.499 17.1758 176.076 17.9082C175.669 18.6406 175.36 19.5033 175.148 20.4961C174.953 21.4727 174.855 22.5469 174.855 23.7188V24.6953C174.855 25.7533 175.002 26.7298 175.295 27.625C175.604 28.5202 176.035 29.2933 176.589 29.9443C177.159 30.5954 177.842 31.0999 178.64 31.458C179.453 31.8161 180.373 31.9951 181.398 31.9951C182.668 31.9951 183.848 31.751 184.938 31.2627C186.045 30.7581 186.997 30.0013 187.795 28.9922L191.213 32.7031C190.66 33.5007 189.903 34.2656 188.942 34.998C187.998 35.7305 186.859 36.3327 185.524 36.8047C184.19 37.2604 182.668 37.4883 180.959 37.4883ZM207.961 37.4883C205.91 37.4883 204.071 37.1628 202.443 36.5117C200.816 35.8444 199.432 34.9248 198.293 33.7529C197.17 32.5811 196.307 31.222 195.705 29.6758C195.103 28.1133 194.802 26.4531 194.802 24.6953V23.7188C194.802 21.7168 195.087 19.8857 195.656 18.2256C196.226 16.5654 197.04 15.125 198.098 13.9043C199.172 12.6836 200.474 11.7477 202.004 11.0967C203.534 10.4294 205.259 10.0957 207.18 10.0957C209.051 10.0957 210.712 10.4049 212.16 11.0234C213.609 11.6419 214.821 12.5208 215.798 13.6602C216.791 14.7995 217.539 16.1667 218.044 17.7617C218.549 19.3405 218.801 21.0983 218.801 23.0352V25.9648H197.805V21.2773H211.892V20.7402C211.892 19.7637 211.713 18.8929 211.354 18.1279C211.013 17.3467 210.492 16.7282 209.792 16.2725C209.092 15.8167 208.197 15.5889 207.106 15.5889C206.179 15.5889 205.381 15.7923 204.714 16.1992C204.047 16.6061 203.501 17.1758 203.078 17.9082C202.671 18.6406 202.362 19.5033 202.15 20.4961C201.955 21.4727 201.857 22.5469 201.857 23.7188V24.6953C201.857 25.7533 202.004 26.7298 202.297 27.625C202.606 28.5202 203.037 29.2933 203.591 29.9443C204.16 30.5954 204.844 31.0999 205.642 31.458C206.455 31.8161 207.375 31.9951 208.4 31.9951C209.67 31.9951 210.85 31.751 211.94 31.2627C213.047 30.7581 213.999 30.0013 214.797 28.9922L218.215 32.7031C217.661 33.5007 216.905 34.2656 215.944 34.998C215 35.7305 213.861 36.3327 212.526 36.8047C211.192 37.2604 209.67 37.4883 207.961 37.4883ZM235.744 10.584V15.5645H220.363V10.584H235.744ZM224.172 4.06543H231.203V29.041C231.203 29.806 231.301 30.3919 231.496 30.7988C231.708 31.2057 232.017 31.4906 232.424 31.6533C232.831 31.7998 233.343 31.873 233.962 31.873C234.401 31.873 234.792 31.8568 235.134 31.8242C235.492 31.7754 235.793 31.7266 236.037 31.6777L236.062 36.8535C235.459 37.0488 234.808 37.2035 234.108 37.3174C233.409 37.4313 232.635 37.4883 231.789 37.4883C230.243 37.4883 228.892 37.236 227.736 36.7314C226.597 36.2106 225.718 35.3805 225.1 34.2412C224.481 33.1019 224.172 31.6045 224.172 29.749V4.06543ZM254.03 29.7002C254.03 29.1956 253.884 28.7399 253.591 28.333C253.298 27.9261 252.753 27.5518 251.955 27.21C251.174 26.8519 250.043 26.5264 248.562 26.2334C247.227 25.9404 245.982 25.5742 244.826 25.1348C243.687 24.679 242.694 24.1338 241.848 23.499C241.018 22.8643 240.367 22.1156 239.895 21.2529C239.423 20.374 239.187 19.373 239.187 18.25C239.187 17.1432 239.423 16.1016 239.895 15.125C240.383 14.1484 241.075 13.2858 241.97 12.5371C242.881 11.7721 243.988 11.1781 245.29 10.7549C246.608 10.3154 248.09 10.0957 249.733 10.0957C252.028 10.0957 253.998 10.4619 255.642 11.1943C257.302 11.9268 258.571 12.9359 259.45 14.2217C260.345 15.4912 260.793 16.9398 260.793 18.5674H253.762C253.762 17.8838 253.615 17.2734 253.322 16.7363C253.046 16.1829 252.606 15.7516 252.004 15.4424C251.418 15.1169 250.653 14.9541 249.709 14.9541C248.928 14.9541 248.252 15.0924 247.683 15.3691C247.113 15.6296 246.674 15.9876 246.364 16.4434C246.071 16.8828 245.925 17.3711 245.925 17.9082C245.925 18.3151 246.006 18.6813 246.169 19.0068C246.348 19.3161 246.633 19.6009 247.023 19.8613C247.414 20.1217 247.919 20.3659 248.537 20.5938C249.172 20.8053 249.953 21.0007 250.881 21.1797C252.785 21.5703 254.486 22.083 255.983 22.7178C257.481 23.3363 258.669 24.1826 259.548 25.2568C260.427 26.3148 260.866 27.7064 260.866 29.4316C260.866 30.6035 260.606 31.6777 260.085 32.6543C259.564 33.6309 258.815 34.4854 257.839 35.2178C256.862 35.9339 255.69 36.4954 254.323 36.9023C252.972 37.293 251.451 37.4883 249.758 37.4883C247.3 37.4883 245.217 37.0488 243.508 36.1699C241.815 35.291 240.529 34.1761 239.65 32.8252C238.788 31.458 238.356 30.0583 238.356 28.626H245.021C245.054 29.5863 245.298 30.3594 245.754 30.9453C246.226 31.5312 246.82 31.9544 247.536 32.2148C248.269 32.4753 249.058 32.6055 249.904 32.6055C250.816 32.6055 251.573 32.4834 252.175 32.2393C252.777 31.9788 253.233 31.637 253.542 31.2139C253.868 30.7744 254.03 30.2699 254.03 29.7002Z" fill="#222222"/>
</svg>
