<svg width="258" height="49" viewBox="0 0 258 49" fill="none" xmlns="http://www.w3.org/2000/svg">
<path d="M17.4 2.9C19.6 2.9 21.4 3.23333 22.8 3.9C24.2333 4.53333 25.5 5.28333 26.6 6.15C27.2667 6.65 27.7667 6.71667 28.1 6.35C28.4667 5.95 28.7167 5.03333 28.85 3.6H30C29.9333 4.86667 29.8833 6.41667 29.85 8.25C29.8167 10.0833 29.8 12.5 29.8 15.5H28.65C28.45 14 28.2333 12.75 28 11.75C27.7667 10.7167 27.4333 9.83333 27 9.1C26.6 8.36667 26.0333 7.66667 25.3 7C24.4 6 23.3167 5.26667 22.05 4.8C20.8167 4.3 19.5167 4.05 18.15 4.05C16.4167 4.05 14.9 4.51666 13.6 5.45C12.3333 6.35 11.2667 7.6 10.4 9.2C9.56667 10.7667 8.93333 12.6 8.5 14.7C8.1 16.8 7.9 19.0333 7.9 21.4C7.9 23.8333 8.11667 26.1 8.55 28.2C9.01667 30.2667 9.68333 32.0833 10.55 33.65C11.45 35.1833 12.55 36.3833 13.85 37.25C15.1833 38.1167 16.7167 38.55 18.45 38.55C19.6833 38.55 20.95 38.3167 22.25 37.85C23.55 37.3833 24.6167 36.6667 25.45 35.7C26.55 34.7 27.3 33.5167 27.7 32.15C28.1 30.75 28.4167 28.9 28.65 26.6H29.8C29.8 29.7333 29.8167 32.2667 29.85 34.2C29.8833 36.1 29.9333 37.7 30 39H28.85C28.7167 37.5667 28.4833 36.6667 28.15 36.3C27.85 35.9333 27.3333 35.9833 26.6 36.45C25.3667 37.3167 24.05 38.0833 22.65 38.75C21.2833 39.3833 19.5167 39.7 17.35 39.7C13.95 39.7 10.9667 38.9833 8.4 37.55C5.83333 36.1167 3.83333 34.05 2.4 31.35C1 28.65 0.3 25.4 0.3 21.6C0.3 17.8667 1.03333 14.6 2.5 11.8C3.96667 9 5.98333 6.81667 8.55 5.25C11.1167 3.68333 14.0667 2.9 17.4 2.9ZM40.5098 0.399999C41.7098 0.399999 42.6931 0.733332 43.4598 1.4C44.2264 2.06666 44.6098 2.95 44.6098 4.05C44.6098 5.15 44.2264 6.03333 43.4598 6.7C42.6931 7.36666 41.7098 7.7 40.5098 7.7C39.3098 7.7 38.3264 7.36666 37.5598 6.7C36.7931 6.03333 36.4098 5.15 36.4098 4.05C36.4098 2.95 36.7931 2.06666 37.5598 1.4C38.3264 0.733332 39.3098 0.399999 40.5098 0.399999ZM44.0098 12.6V34.35C44.0098 35.75 44.2598 36.7 44.7598 37.2C45.2931 37.7 46.1764 37.95 47.4098 37.95V39C46.8098 38.9667 45.8931 38.9333 44.6598 38.9C43.4264 38.8333 42.1764 38.8 40.9098 38.8C39.6764 38.8 38.4264 38.8333 37.1598 38.9C35.8931 38.9333 34.9431 38.9667 34.3098 39V37.95C35.5431 37.95 36.4098 37.7 36.9098 37.2C37.4431 36.7 37.7098 35.75 37.7098 34.35V18.65C37.7098 17.1167 37.4598 16 36.9598 15.3C36.4931 14.5667 35.6098 14.2 34.3098 14.2V13.15C35.3764 13.25 36.4098 13.3 37.4098 13.3C38.6431 13.3 39.8098 13.25 40.9098 13.15C42.0431 13.0167 43.0764 12.8333 44.0098 12.6ZM59.1406 4.95V13.2H65.5406V14.2H59.1406V34.1C59.1406 35.3 59.3573 36.15 59.7906 36.65C60.224 37.15 60.8406 37.4 61.6406 37.4C62.4073 37.4 63.1073 37.1167 63.7406 36.55C64.374 35.95 64.9406 34.9667 65.4406 33.6L66.3406 34C65.8406 35.6333 65.0573 37 63.9906 38.1C62.9573 39.1667 61.4906 39.7 59.5906 39.7C58.4573 39.7 57.4906 39.55 56.6906 39.25C55.924 38.9833 55.2573 38.5833 54.6906 38.05C53.9573 37.2833 53.4573 36.3667 53.1906 35.3C52.9573 34.2333 52.8406 32.8167 52.8406 31.05V14.2H48.4406V13.2H52.8406V6.25C54.0406 6.21667 55.1573 6.1 56.1906 5.9C57.224 5.7 58.2073 5.38333 59.1406 4.95ZM91.2688 13.15V14.2C90.6354 14.3333 90.0354 14.6833 89.4688 15.25C88.9354 15.8167 88.4188 16.8167 87.9188 18.25L80.5188 38.55L78.9688 40.9L68.6688 17C68.0354 15.7333 67.4354 14.95 66.8688 14.65C66.3021 14.35 65.8354 14.2 65.4687 14.2V13.15C66.4354 13.25 67.4354 13.3333 68.4688 13.4C69.5354 13.4333 70.6021 13.45 71.6688 13.45C72.9021 13.45 74.0854 13.4167 75.2188 13.35C76.3854 13.2833 77.4688 13.2167 78.4688 13.15V14.2C77.7021 14.2 77.0188 14.25 76.4188 14.35C75.8188 14.45 75.4188 14.7333 75.2188 15.2C75.0521 15.6333 75.1854 16.4 75.6188 17.5L81.8688 32.75L81.4688 32.95L85.8688 21.05C86.4354 19.4833 86.6688 18.2167 86.5688 17.25C86.4688 16.2833 86.1021 15.55 85.4688 15.05C84.8354 14.55 83.9688 14.2667 82.8688 14.2V13.15C83.4021 13.1833 83.9354 13.2167 84.4688 13.25C85.0021 13.2833 85.5188 13.3167 86.0188 13.35C86.5188 13.35 87.0021 13.35 87.4688 13.35C88.1688 13.35 88.8521 13.3333 89.5188 13.3C90.2188 13.2667 90.8021 13.2167 91.2688 13.15ZM80.5188 38.55L78.6188 43.6C78.3188 44.4333 77.9854 45.1333 77.6188 45.7C77.2854 46.3 76.9021 46.7833 76.4688 47.15C75.9688 47.5833 75.3521 47.9 74.6188 48.1C73.9188 48.3 73.1354 48.4 72.2688 48.4C71.5021 48.4 70.7521 48.2667 70.0188 48C69.3188 47.7333 68.7188 47.3333 68.2188 46.8C67.7521 46.2667 67.5188 45.5667 67.5188 44.7C67.5188 43.7667 67.8354 43.0167 68.4688 42.45C69.1021 41.8833 69.9688 41.6 71.0688 41.6C72.0354 41.6 72.8188 41.8333 73.4188 42.3C74.0521 42.8 74.3688 43.5333 74.3688 44.5C74.3688 45.1333 74.1854 45.7 73.8188 46.2C73.4521 46.7 72.9354 47.0833 72.2688 47.35C72.4354 47.3833 72.5854 47.4 72.7188 47.4C72.8854 47.4333 73.0188 47.45 73.1188 47.45C74.0854 47.45 74.9521 47.1333 75.7188 46.5C76.4854 45.8667 77.1021 44.8667 77.5688 43.5L79.3688 38.55H80.5188ZM115.899 3C117.766 3 119.199 3.2 120.199 3.6C121.199 4 122.066 4.43333 122.799 4.9C123.199 5.13333 123.516 5.31667 123.749 5.45C124.016 5.55 124.266 5.6 124.499 5.6C124.833 5.6 125.066 5.41666 125.199 5.05C125.366 4.68333 125.499 4.13333 125.599 3.4H126.749C126.716 4.03333 126.666 4.76667 126.599 5.6C126.566 6.43333 126.533 7.55 126.499 8.95C126.499 10.3167 126.499 12.1333 126.499 14.4H125.349C125.249 12.7 124.866 11.0667 124.199 9.5C123.566 7.93333 122.649 6.65 121.449 5.65C120.283 4.61667 118.783 4.1 116.949 4.1C115.316 4.1 113.949 4.58333 112.849 5.55C111.783 6.51666 111.249 7.81666 111.249 9.45C111.249 10.85 111.599 12.0333 112.299 13C112.999 13.9333 113.983 14.85 115.249 15.75C116.549 16.6167 118.083 17.6167 119.849 18.75C121.483 19.8167 122.949 20.8833 124.249 21.95C125.549 22.9833 126.566 24.1333 127.299 25.4C128.066 26.6667 128.449 28.2167 128.449 30.05C128.449 32.2167 127.916 34.0167 126.849 35.45C125.783 36.8833 124.349 37.95 122.549 38.65C120.749 39.35 118.783 39.7 116.649 39.7C114.683 39.7 113.116 39.5 111.949 39.1C110.816 38.7 109.833 38.2833 108.999 37.85C108.266 37.3833 107.699 37.15 107.299 37.15C106.966 37.15 106.716 37.3333 106.549 37.7C106.416 38.0667 106.299 38.6167 106.199 39.35H105.049C105.116 38.5833 105.149 37.6833 105.149 36.65C105.183 35.6167 105.199 34.2833 105.199 32.65C105.233 30.9833 105.249 28.8833 105.249 26.35H106.399C106.533 28.4833 106.899 30.4833 107.499 32.35C108.133 34.1833 109.083 35.6667 110.349 36.8C111.649 37.9333 113.366 38.5 115.499 38.5C116.666 38.5 117.716 38.3 118.649 37.9C119.616 37.4667 120.383 36.8167 120.949 35.95C121.516 35.05 121.799 33.9167 121.799 32.55C121.799 31.1833 121.483 29.9833 120.849 28.95C120.216 27.9167 119.333 26.95 118.199 26.05C117.066 25.15 115.733 24.2333 114.199 23.3C112.633 22.3 111.166 21.2833 109.799 20.25C108.433 19.2167 107.333 18.05 106.499 16.75C105.699 15.4167 105.299 13.8167 105.299 11.95C105.299 9.88333 105.799 8.2 106.799 6.9C107.799 5.56666 109.099 4.58333 110.699 3.95C112.333 3.31667 114.066 3 115.899 3ZM142.971 13.15V14.2C142.171 14.2 141.487 14.2667 140.921 14.4C140.354 14.5 139.971 14.7667 139.771 15.2C139.604 15.6333 139.687 16.4 140.021 17.5L144.921 32.4L144.371 32.8L150.721 13.05L151.771 13.55L143.621 39.15C143.221 39.1167 142.804 39.1 142.371 39.1C141.971 39.1 141.571 39.1167 141.171 39.15L133.171 17C132.637 15.6667 132.104 14.8667 131.571 14.6C131.071 14.3333 130.637 14.2 130.271 14.2V13.15C131.204 13.25 132.171 13.3333 133.171 13.4C134.171 13.4333 135.271 13.45 136.471 13.45C137.504 13.45 138.587 13.4167 139.721 13.35C140.887 13.2833 141.971 13.2167 142.971 13.15ZM169.521 13.15V14.2C168.887 14.3333 168.271 14.6833 167.671 15.25C167.104 15.7833 166.587 16.7833 166.121 18.25L159.271 39.15C158.871 39.1167 158.471 39.1 158.071 39.1C157.671 39.1 157.254 39.1167 156.821 39.15L149.471 19.5L150.771 13.05C151.237 13.0833 151.704 13.1 152.171 13.1C152.637 13.1 153.104 13.0833 153.571 13.05L160.721 33.4L160.221 33.15L164.121 21.05C164.621 19.45 164.804 18.1667 164.671 17.2C164.571 16.2333 164.187 15.5167 163.521 15.05C162.887 14.55 162.004 14.2667 160.871 14.2V13.15C161.404 13.1833 161.954 13.2167 162.521 13.25C163.087 13.2833 163.637 13.3167 164.171 13.35C164.704 13.35 165.204 13.35 165.671 13.35C166.371 13.35 167.071 13.3333 167.771 13.3C168.471 13.2667 169.054 13.2167 169.521 13.15ZM182.798 12.45C185.732 12.45 188.032 13.3333 189.698 15.1C191.365 16.8667 192.198 19.6833 192.198 23.55H175.348L175.298 22.6H186.398C186.465 20.9667 186.365 19.4667 186.098 18.1C185.832 16.7 185.398 15.5833 184.798 14.75C184.232 13.9167 183.482 13.5 182.548 13.5C181.282 13.5 180.182 14.25 179.248 15.75C178.315 17.2167 177.732 19.6333 177.498 23L177.698 23.3C177.632 23.7333 177.582 24.2 177.548 24.7C177.548 25.2 177.548 25.7 177.548 26.2C177.548 28.5 177.882 30.4 178.548 31.9C179.215 33.4 180.082 34.5 181.148 35.2C182.215 35.9 183.315 36.25 184.448 36.25C185.215 36.25 185.998 36.1333 186.798 35.9C187.598 35.6667 188.382 35.2333 189.148 34.6C189.915 33.9667 190.615 33.0667 191.248 31.9L192.198 32.3C191.832 33.4667 191.215 34.6333 190.348 35.8C189.515 36.9333 188.432 37.8667 187.098 38.6C185.765 39.3333 184.198 39.7 182.398 39.7C180.132 39.7 178.132 39.2 176.398 38.2C174.665 37.2 173.315 35.7167 172.348 33.75C171.382 31.75 170.898 29.3167 170.898 26.45C170.898 23.4167 171.398 20.8667 172.398 18.8C173.432 16.7333 174.848 15.1667 176.648 14.1C178.448 13 180.498 12.45 182.798 12.45ZM208.043 12.45C210.976 12.45 213.276 13.3333 214.943 15.1C216.609 16.8667 217.443 19.6833 217.443 23.55H200.593L200.543 22.6H211.643C211.709 20.9667 211.609 19.4667 211.343 18.1C211.076 16.7 210.643 15.5833 210.043 14.75C209.476 13.9167 208.726 13.5 207.793 13.5C206.526 13.5 205.426 14.25 204.493 15.75C203.559 17.2167 202.976 19.6333 202.743 23L202.943 23.3C202.876 23.7333 202.826 24.2 202.793 24.7C202.793 25.2 202.793 25.7 202.793 26.2C202.793 28.5 203.126 30.4 203.793 31.9C204.459 33.4 205.326 34.5 206.393 35.2C207.459 35.9 208.559 36.25 209.693 36.25C210.459 36.25 211.243 36.1333 212.043 35.9C212.843 35.6667 213.626 35.2333 214.393 34.6C215.159 33.9667 215.859 33.0667 216.493 31.9L217.443 32.3C217.076 33.4667 216.459 34.6333 215.593 35.8C214.759 36.9333 213.676 37.8667 212.343 38.6C211.009 39.3333 209.443 39.7 207.643 39.7C205.376 39.7 203.376 39.2 201.643 38.2C199.909 37.2 198.559 35.7167 197.593 33.75C196.626 31.75 196.143 29.3167 196.143 26.45C196.143 23.4167 196.643 20.8667 197.643 18.8C198.676 16.7333 200.093 15.1667 201.893 14.1C203.693 13 205.743 12.45 208.043 12.45ZM230.137 4.95V13.2H236.537V14.2H230.137V34.1C230.137 35.3 230.353 36.15 230.787 36.65C231.22 37.15 231.837 37.4 232.637 37.4C233.403 37.4 234.103 37.1167 234.737 36.55C235.37 35.95 235.937 34.9667 236.437 33.6L237.337 34C236.837 35.6333 236.053 37 234.987 38.1C233.953 39.1667 232.487 39.7 230.587 39.7C229.453 39.7 228.487 39.55 227.687 39.25C226.92 38.9833 226.253 38.5833 225.687 38.05C224.953 37.2833 224.453 36.3667 224.187 35.3C223.953 34.2333 223.837 32.8167 223.837 31.05V14.2H219.437V13.2H223.837V6.25C225.037 6.21667 226.153 6.1 227.187 5.9C228.22 5.7 229.203 5.38333 230.137 4.95ZM247.815 12.45C249.215 12.45 250.415 12.65 251.415 13.05C252.415 13.45 253.148 13.8 253.615 14.1C254.748 14.9333 255.432 14.4 255.665 12.5H256.765C256.698 13.4667 256.648 14.6167 256.615 15.95C256.582 17.25 256.565 19 256.565 21.2H255.465C255.298 19.9667 254.982 18.7667 254.515 17.6C254.048 16.4333 253.365 15.4667 252.465 14.7C251.565 13.9 250.382 13.5 248.915 13.5C247.882 13.5 247.015 13.8 246.315 14.4C245.648 15 245.315 15.85 245.315 16.95C245.315 17.95 245.615 18.8333 246.215 19.6C246.815 20.3333 247.582 21.0333 248.515 21.7C249.482 22.3333 250.482 23.0333 251.515 23.8C252.715 24.6 253.782 25.4167 254.715 26.25C255.648 27.05 256.398 27.95 256.965 28.95C257.532 29.9167 257.815 31.0667 257.815 32.4C257.815 33.9333 257.382 35.25 256.515 36.35C255.682 37.4167 254.565 38.25 253.165 38.85C251.798 39.4167 250.282 39.7 248.615 39.7C247.715 39.7 246.898 39.6167 246.165 39.45C245.432 39.2833 244.782 39.0667 244.215 38.8C243.782 38.5667 243.382 38.35 243.015 38.15C242.682 37.95 242.332 37.7833 241.965 37.65C241.632 37.4833 241.332 37.55 241.065 37.85C240.832 38.15 240.648 38.65 240.515 39.35H239.415C239.482 38.2833 239.532 36.9833 239.565 35.45C239.598 33.9167 239.615 31.8833 239.615 29.35H240.715C240.948 31.1833 241.298 32.8 241.765 34.2C242.265 35.5667 242.982 36.65 243.915 37.45C244.848 38.2167 246.048 38.6 247.515 38.6C248.148 38.6 248.748 38.4667 249.315 38.2C249.915 37.9333 250.398 37.5167 250.765 36.95C251.165 36.3833 251.365 35.6167 251.365 34.65C251.365 33.1833 250.865 31.9667 249.865 31C248.865 30.0333 247.615 29 246.115 27.9C244.982 27.0667 243.915 26.25 242.915 25.45C241.948 24.65 241.148 23.75 240.515 22.75C239.915 21.75 239.615 20.5667 239.615 19.2C239.615 17.7 239.998 16.4667 240.765 15.5C241.532 14.5 242.532 13.75 243.765 13.25C245.032 12.7167 246.382 12.45 247.815 12.45Z" fill="#222222"/>
</svg>
